<?xml version="1.0" standalone="no"?>
<!DOCTYPE svg PUBLIC "-//W3C//DTD SVG 20010904//EN"
 "http://www.w3.org/TR/2001/REC-SVG-20010904/DTD/svg10.dtd">
<svg version="1.0" xmlns="http://www.w3.org/2000/svg"
 width="4000.000000pt" height="4000.000000pt" viewBox="0 0 4000.000000 4000.000000"
 preserveAspectRatio="xMidYMid meet">
<metadata>
Created by potrace 1.14, written by Peter Selinger 2001-2017
</metadata>
<g transform="translate(0.000000,4000.000000) scale(0.100000,-0.100000)"
fill="#000000" stroke="none">
<path d="M19934 39913 c-32 -49 -62 -89 -66 -91 -5 -2 -8 -10 -8 -18 0 -8 -4
-14 -10 -14 -5 0 -10 -5 -10 -12 0 -6 -10 -25 -23 -42 -12 -17 -31 -48 -42
-68 -11 -21 -22 -38 -25 -38 -4 0 -17 -19 -30 -42 -13 -24 -36 -61 -52 -82
-15 -21 -28 -45 -28 -53 0 -7 -4 -13 -9 -13 -5 0 -14 -13 -21 -30 -7 -16 -16
-30 -21 -30 -5 0 -9 -6 -9 -13 0 -7 -9 -23 -20 -35 -12 -12 -18 -22 -16 -22 5
0 -34 -64 -54 -87 -5 -7 -10 -15 -10 -17 0 -10 -64 -111 -72 -114 -4 -2 -8
-12 -8 -23 0 -10 -3 -19 -8 -19 -4 0 -16 -17 -27 -37 -11 -21 -41 -73 -67
-115 -27 -43 -48 -80 -48 -82 0 -3 -13 -27 -30 -53 -16 -26 -30 -50 -30 -54 0
-4 364 -7 810 -7 l810 1 -31 56 c-17 31 -36 62 -41 69 -6 6 -7 12 -2 12 5 0 4
4 -2 8 -13 9 -84 127 -84 140 0 6 -4 12 -8 14 -5 2 -23 28 -40 58 -51 86 -56
95 -67 102 -5 4 -6 8 -1 8 4 0 -4 16 -18 35 -15 19 -23 35 -19 35 4 0 3 4 -2
8 -11 8 -85 119 -85 127 0 3 -15 27 -34 53 -18 27 -37 58 -40 70 -4 12 -12 22
-17 22 -5 0 -9 5 -9 10 0 6 -5 16 -10 23 -22 25 -170 258 -170 266 0 5 -3 11
-7 13 -12 5 -73 95 -73 107 0 6 -4 11 -10 11 -5 0 -10 5 -10 11 0 10 -24 39
-33 39 -2 0 -31 -39 -63 -87z"/>
<path d="M19594 34841 c-2 -3 -147 -8 -322 -12 -174 -4 -382 -10 -462 -13 -80
-3 -198 -6 -262 -8 -65 -1 -118 -5 -118 -8 0 -4 -48 -7 -107 -8 -124 -3 -230
-8 -393 -22 -138 -11 -240 -18 -337 -21 -40 -1 -73 -5 -73 -9 0 -4 -32 -6 -71
-4 l-71 2 -14 -37 c-8 -20 -19 -44 -25 -54 -5 -10 -7 -22 -4 -27 4 -6 1 -10
-4 -10 -6 0 -10 -3 -9 -7 1 -5 -10 -45 -26 -90 -15 -45 -26 -84 -24 -86 2 -2
-2 -10 -8 -18 -6 -8 -19 -42 -29 -76 -11 -35 -23 -63 -27 -63 -5 0 -7 -4 -4
-9 5 -8 -4 -45 -22 -91 -3 -8 -6 -18 -7 -22 -2 -5 -4 -10 -5 -13 -1 -3 -3 -8
-4 -12 -2 -8 -63 -204 -93 -298 -9 -27 -15 -50 -13 -50 2 0 -2 -10 -9 -23 -14
-27 -23 -59 -23 -84 1 -10 -3 -18 -9 -18 -5 0 -9 -9 -9 -20 0 -10 -4 -29 -9
-42 -9 -23 -40 -127 -45 -150 -2 -7 -6 -20 -9 -28 -11 -29 -59 -204 -60 -222
-1 -10 -5 -18 -10 -18 -4 0 -7 -6 -6 -12 1 -7 -1 -20 -4 -28 -4 -8 -9 -26 -11
-40 -3 -14 -5 -26 -7 -27 -1 -2 -3 -7 -4 -13 -1 -5 -4 -13 -5 -17 -1 -5 -2
-12 -1 -17 1 -4 -4 -14 -10 -22 -7 -8 -9 -17 -6 -20 3 -3 1 -18 -5 -33 -12
-32 -15 -43 -30 -108 -7 -29 -15 -53 -19 -53 -4 0 -6 -9 -4 -20 2 -11 0 -22
-5 -25 -5 -3 -7 -14 -5 -25 2 -11 0 -20 -4 -20 -5 0 -12 -19 -16 -42 -4 -24
-9 -47 -10 -53 -2 -5 -15 -57 -30 -115 -35 -136 -31 -122 -55 -220 -11 -47
-23 -94 -26 -105 -3 -11 -7 -32 -8 -46 -2 -14 -6 -30 -9 -36 -4 -6 -8 -26 -11
-46 -2 -20 -7 -41 -11 -47 -4 -6 -8 -21 -10 -33 -2 -12 -7 -35 -10 -52 -4 -16
-7 -37 -8 -45 0 -8 -4 -21 -10 -27 -5 -7 -7 -13 -3 -13 3 0 2 -10 -3 -23 -5
-13 -12 -39 -15 -58 -3 -19 -8 -45 -11 -59 -4 -14 -8 -38 -11 -55 -3 -16 -7
-37 -10 -45 -9 -24 -17 -63 -17 -87 -1 -13 -4 -23 -7 -23 -3 0 -7 -10 -7 -22
-1 -13 -11 -66 -23 -118 -12 -52 -22 -107 -23 -122 -1 -16 -4 -28 -7 -28 -3 0
-6 -8 -6 -17 -1 -17 -7 -51 -18 -99 -2 -12 -7 -39 -11 -60 -4 -22 -9 -50 -11
-64 -3 -14 -6 -34 -8 -45 -2 -11 -4 -20 -6 -20 -1 0 -3 -9 -4 -20 -4 -27 -17
-106 -23 -130 -2 -11 -6 -33 -8 -50 -2 -16 -4 -30 -5 -30 -1 0 -4 -12 -6 -27
-2 -16 -6 -40 -8 -55 -2 -16 -5 -28 -6 -28 -2 0 -9 -34 -16 -80 -3 -22 -7 -51
-9 -65 -7 -47 -16 -105 -22 -135 -4 -16 -7 -42 -7 -57 -1 -16 -4 -28 -8 -28
-3 0 -5 -8 -3 -17 1 -10 -1 -28 -6 -40 -7 -20 -6 -21 39 -17 76 7 107 11 112
14 5 2 80 10 133 13 15 1 27 4 27 7 0 3 22 6 48 6 27 0 53 4 59 7 6 4 31 8 55
8 23 1 47 4 53 7 5 4 28 7 50 9 22 1 60 5 85 7 25 3 68 8 95 10 28 3 89 10
136 15 48 6 97 11 110 11 37 0 189 19 199 25 4 3 20 1 34 -5 18 -6 29 -6 38 3
7 7 38 13 68 15 30 1 87 3 125 5 39 2 75 6 81 9 5 4 32 7 59 7 28 0 106 5 175
11 140 11 292 21 360 21 24 0 49 4 55 7 5 3 51 8 100 9 153 5 200 8 213 16 6
5 12 4 12 0 0 -5 31 -8 70 -8 38 0 70 3 70 7 0 4 69 7 153 7 153 0 181 2 192
13 3 3 22 2 41 -2 19 -4 36 -4 39 1 3 4 16 4 28 0 12 -5 34 -5 49 0 16 4 28 4
28 -1 0 -5 13 -5 29 0 15 4 34 4 40 0 7 -4 30 -4 52 0 21 4 39 4 39 -1 0 -4
13 -4 29 1 15 4 34 5 40 0 7 -4 35 -3 64 1 64 11 74 11 267 10 85 0 162 0 170
0 8 0 191 -5 405 -11 215 -6 443 -11 508 -11 65 0 116 -3 113 -7 -2 -4 55 -8
127 -9 240 -5 322 -8 332 -15 6 -4 47 -7 90 -8 104 -2 194 -7 330 -19 186 -17
248 -21 313 -23 34 0 62 -4 62 -8 0 -4 27 -6 60 -5 33 1 60 -1 60 -5 0 -8 23
-9 175 -13 33 -1 63 -6 66 -11 4 -4 53 -10 110 -12 57 -3 105 -8 107 -12 1 -4
24 -7 50 -6 26 1 52 -1 57 -4 6 -4 30 -7 55 -8 25 -1 45 -3 45 -4 0 -3 82 -11
143 -13 23 -1 42 -5 42 -8 0 -4 28 -9 63 -13 89 -9 122 -13 122 -15 0 -2 60
-9 130 -15 17 -1 36 -6 43 -10 7 -4 22 -4 33 -1 17 6 20 12 15 33 -4 15 -9 52
-12 82 -3 30 -9 57 -12 60 -4 3 -8 16 -8 30 -3 40 -14 113 -21 135 -3 11 -7
31 -7 45 -1 14 -4 30 -7 35 -4 6 -5 18 -4 28 2 9 0 17 -4 17 -4 0 -6 14 -3 30
3 19 0 30 -7 30 -7 0 -10 4 -7 9 3 5 1 33 -5 62 -6 30 -12 66 -13 82 0 15 -5
27 -9 27 -5 0 -6 4 -3 8 3 4 1 26 -4 48 -5 21 -11 55 -15 74 -3 19 -10 58 -15
85 -5 28 -11 59 -13 70 -1 11 -5 25 -8 30 -3 6 -4 20 -3 33 0 12 -3 22 -9 22
-6 0 -8 2 -5 5 3 3 -1 36 -9 73 -8 37 -16 76 -18 87 -6 35 -15 79 -21 105 -13
55 -17 76 -17 98 -1 12 -5 22 -11 22 -5 0 -7 3 -4 6 3 3 0 29 -7 57 -8 29 -16
66 -19 82 -7 41 -14 72 -22 98 -6 19 -11 50 -16 95 -1 6 -4 12 -8 12 -4 0 -7
6 -7 13 0 10 -8 49 -29 147 -3 14 -7 36 -10 49 -3 13 -9 32 -14 41 -5 10 -7
20 -4 23 3 3 2 12 -2 19 -5 7 -9 22 -9 33 -1 11 -4 27 -7 35 -11 27 -22 75
-21 93 0 9 -3 17 -7 17 -5 0 -7 8 -5 18 1 9 0 22 -4 27 -3 6 -7 19 -9 30 -4
25 -7 36 -15 55 -5 13 -17 62 -18 75 0 2 -9 34 -19 70 -10 36 -19 66 -19 68 0
1 -2 9 -5 17 -8 26 -38 144 -43 173 -3 15 -8 27 -12 27 -3 0 -7 10 -7 23 -3
45 -8 67 -16 67 -4 0 -8 11 -8 24 0 13 -7 42 -15 65 -8 23 -14 43 -15 46 0 3
0 6 -1 8 0 1 -3 15 -5 32 -3 16 -11 33 -17 37 -7 4 -9 8 -5 8 4 0 0 24 -9 53
-22 73 -39 132 -58 202 -9 33 -19 67 -22 75 -3 8 -7 18 -8 23 -2 4 -4 9 -5 12
-1 3 -3 13 -4 23 0 11 -7 26 -15 35 -7 10 -11 17 -8 17 3 0 1 15 -4 33 -6 17
-12 40 -14 50 -2 9 -7 22 -10 27 -3 5 -8 20 -10 32 -4 20 -23 82 -43 138 -7
20 -6 18 -21 70 -7 25 -16 50 -19 55 -4 6 -8 19 -9 30 -3 19 -15 56 -33 100
-20 48 -38 114 -32 119 3 3 1 6 -5 6 -9 0 -17 24 -27 80 -1 3 -4 10 -7 15 -8
12 -32 85 -35 105 -2 8 -7 23 -13 35 -16 34 -27 68 -34 100 -2 8 -6 18 -10 21
-4 4 -7 15 -7 24 0 12 -11 16 -52 17 -29 1 -89 5 -133 8 -77 6 -117 8 -347 24
-60 4 -111 10 -114 14 -3 3 -17 2 -30 -3 -13 -5 -24 -6 -24 -2 0 4 -24 8 -52
9 -29 1 -107 4 -173 8 -295 14 -369 17 -507 18 -82 1 -148 5 -148 8 0 6 -445
17 -685 18 -49 0 -97 0 -105 0 -8 0 -116 0 -240 0 -124 0 -238 0 -255 1 -104
4 -167 4 -171 1z"/>
<path d="M1204 28267 c3 -12 10 -44 15 -72 6 -27 13 -61 15 -75 3 -14 5 -25 6
-25 2 0 5 -14 13 -55 20 -101 24 -119 26 -122 2 -2 4 -14 7 -27 2 -13 13 -58
24 -100 10 -42 21 -89 24 -106 2 -16 5 -32 7 -35 1 -3 3 -9 4 -15 2 -5 4 -13
5 -17 4 -12 6 -21 14 -53 12 -53 27 -109 36 -140 5 -16 11 -41 14 -55 2 -14 9
-37 14 -51 6 -15 8 -30 5 -33 -3 -3 -2 -11 4 -18 8 -11 25 -72 37 -130 2 -7 5
-20 9 -28 5 -16 26 -95 31 -120 2 -8 6 -22 9 -30 8 -20 50 -163 52 -175 4 -35
29 -105 37 -105 5 0 6 -5 3 -10 -6 -10 9 -68 26 -102 5 -10 9 -26 9 -36 0 -10
3 -22 7 -26 4 -3 8 -13 9 -21 1 -8 12 -45 24 -82 12 -38 23 -72 25 -78 1 -5 5
-17 8 -25 20 -54 34 -109 29 -114 -3 -3 -1 -6 4 -6 6 0 16 -24 24 -52 7 -29
17 -60 21 -68 4 -8 31 -85 59 -170 28 -85 56 -164 61 -175 6 -12 11 -27 13
-35 4 -20 16 -51 27 -72 5 -10 9 -26 9 -36 0 -10 4 -22 9 -28 10 -10 42 -106
38 -114 -1 -3 6 -18 16 -33 9 -15 15 -27 12 -27 -3 0 0 -10 7 -22 7 -13 13
-25 13 -28 1 -7 44 -121 54 -145 5 -11 39 -96 76 -190 37 -93 72 -181 78 -195
6 -14 11 -27 12 -30 1 -3 7 -18 13 -33 7 -16 12 -30 12 -33 0 -6 39 -93 55
-124 7 -14 14 -29 15 -35 1 -5 10 -30 21 -55 12 -25 28 -63 36 -85 9 -22 20
-44 25 -50 4 -5 8 -17 8 -27 0 -10 4 -18 10 -18 5 0 9 -3 8 -7 -1 -8 6 -27 43
-108 12 -27 23 -52 24 -55 1 -3 8 -18 15 -35 7 -16 13 -33 12 -37 -1 -5 3 -8
8 -8 5 0 9 -3 8 -7 0 -5 3 -18 8 -30 l9 -22 34 27 c19 15 49 41 67 57 19 17
48 41 66 55 17 14 45 37 62 52 36 32 99 82 146 118 37 28 80 64 116 98 14 12
27 22 31 22 3 0 15 9 27 20 33 30 186 150 192 150 2 0 18 12 33 28 39 36 59
52 67 52 4 0 16 10 28 23 12 13 29 26 39 30 9 3 17 11 17 17 0 5 5 10 11 10 6
0 26 12 44 28 18 15 45 36 59 47 15 11 33 26 41 33 7 6 17 12 22 12 5 0 15 9
23 20 8 11 18 20 23 20 5 0 28 16 51 35 24 19 48 35 55 35 6 0 11 4 11 8 0 7
52 48 135 108 86 61 297 216 305 224 3 3 22 14 43 25 20 11 37 23 37 26 0 4
21 21 48 38 116 76 136 90 144 105 5 9 13 14 17 11 5 -2 14 2 21 10 7 8 16 15
21 15 4 0 22 13 40 30 18 16 36 27 40 25 4 -3 9 2 13 10 3 8 10 15 16 15 10 0
77 45 148 98 17 13 32 21 32 18 0 -8 23 10 48 37 9 9 22 17 29 17 7 0 13 4 13
9 0 5 13 14 30 21 16 7 42 23 57 36 15 12 30 21 34 18 4 -2 9 3 13 11 3 8 12
15 21 15 8 0 15 5 15 10 0 6 4 10 10 10 9 0 81 46 90 58 3 4 22 16 43 27 20
11 37 22 37 25 0 4 18 14 40 24 22 10 40 22 40 27 0 5 5 9 10 9 6 0 33 16 60
35 28 19 50 33 50 30 0 -3 6 -1 13 5 16 15 197 130 203 130 3 0 10 5 17 10 22
19 87 59 87 55 0 -3 9 4 20 15 12 12 25 18 30 15 6 -4 13 0 16 8 3 9 15 18 27
21 13 3 31 13 42 23 11 10 41 29 68 43 47 25 101 63 82 58 -5 -1 -67 26 -136
60 -70 34 -132 62 -138 62 -6 0 -11 4 -11 9 0 5 -10 13 -22 16 -13 4 -68 29
-123 55 -121 57 -175 83 -367 169 -26 11 -52 21 -57 21 -6 0 -11 4 -11 10 0 5
-3 9 -7 8 -9 -1 -37 10 -111 43 -115 53 -398 172 -409 172 -7 0 -13 4 -13 9 0
4 -7 8 -15 8 -8 0 -23 4 -33 9 -38 20 -98 44 -109 44 -7 0 -13 5 -13 10 0 6
-3 8 -6 4 -4 -3 -28 5 -55 19 -27 13 -49 22 -49 19 0 -3 -10 0 -22 7 -13 7
-25 13 -28 14 -9 2 -46 16 -125 48 -79 31 -100 39 -115 42 -8 2 -26 8 -40 15
-37 17 -56 25 -155 59 -49 17 -97 34 -105 38 -8 5 -49 19 -90 33 -41 13 -78
29 -82 34 -4 6 -8 7 -8 4 0 -4 -35 6 -77 21 -43 15 -85 29 -93 32 -8 3 -31 11
-50 17 -19 7 -41 13 -47 14 -7 0 -13 3 -13 7 0 3 -8 6 -18 7 -19 2 -134 39
-167 54 -11 5 -29 11 -40 12 -11 2 -32 9 -46 15 -15 6 -43 14 -63 17 -20 4
-39 11 -42 16 -3 5 -15 9 -28 9 -12 0 -26 3 -30 7 -3 4 -13 8 -21 9 -12 2 -65
18 -165 50 -8 3 -16 5 -17 5 -2 0 -33 9 -70 20 -65 20 -167 49 -188 54 -5 1
-17 4 -25 8 -13 4 -106 30 -120 32 -3 1 -25 7 -50 14 -25 7 -52 15 -60 16 -8
2 -15 4 -15 5 0 1 -7 3 -15 5 -8 1 -42 10 -75 20 -33 9 -67 17 -75 19 -8 1
-22 5 -30 8 -8 4 -28 9 -45 13 -16 3 -46 10 -65 15 -32 8 -179 44 -225 55 -11
3 -33 8 -49 11 -16 2 -32 7 -36 9 -3 2 -17 6 -31 9 -26 5 -98 21 -139 30 -14
3 -36 8 -50 11 -14 3 -36 8 -50 11 -14 3 -34 7 -45 9 -11 2 -42 9 -70 15 -89
21 -86 21 -81 -3z"/>
<path d="M38768 28285 c-3 -3 -18 -8 -34 -11 -36 -6 -174 -34 -194 -40 -8 -2
-46 -11 -85 -20 -38 -8 -79 -18 -90 -20 -11 -3 -27 -7 -35 -8 -21 -3 -72 -16
-90 -23 -8 -3 -26 -7 -40 -9 -14 -2 -36 -6 -50 -11 -14 -4 -29 -8 -35 -8 -5
-1 -30 -7 -54 -14 -25 -7 -54 -14 -65 -16 -12 -1 -34 -7 -49 -14 -16 -6 -33
-9 -38 -5 -5 3 -9 0 -9 -7 0 -7 -3 -10 -6 -7 -3 4 -38 -3 -77 -14 -40 -11 -79
-21 -87 -23 -8 -2 -30 -8 -47 -14 -18 -5 -33 -7 -33 -4 0 3 -7 0 -15 -7 -8 -7
-15 -10 -15 -6 0 3 -15 0 -34 -8 -19 -8 -37 -12 -40 -9 -3 3 -13 0 -22 -8 -10
-8 -19 -13 -21 -11 -1 1 -4 2 -5 1 -2 0 -14 -2 -28 -5 -14 -2 -32 -7 -40 -11
-8 -3 -19 -7 -25 -8 -5 -2 -30 -8 -55 -16 -58 -16 -61 -17 -85 -23 -11 -2 -32
-9 -46 -14 -15 -6 -30 -8 -33 -5 -3 4 -6 1 -6 -5 0 -7 -8 -12 -18 -12 -11 0
-44 -9 -75 -19 -32 -11 -57 -17 -57 -14 0 3 -7 0 -15 -7 -8 -6 -19 -9 -25 -5
-5 3 -10 1 -10 -4 0 -6 -10 -11 -23 -11 -13 0 -27 -3 -31 -7 -3 -4 -15 -8 -25
-10 -10 -1 -29 -7 -42 -12 -13 -5 -28 -10 -34 -11 -5 -2 -33 -11 -62 -21 -28
-9 -54 -15 -57 -12 -3 4 -6 1 -6 -5 0 -7 -3 -11 -7 -11 -15 3 -74 -14 -79 -22
-3 -5 -15 -9 -28 -9 -12 0 -26 -3 -30 -7 -3 -4 -12 -8 -19 -9 -7 -1 -37 -11
-67 -22 -30 -10 -59 -20 -65 -22 -21 -5 -61 -20 -75 -28 -8 -5 -23 -8 -32 -6
-10 1 -18 -1 -18 -5 0 -4 -21 -13 -47 -20 -27 -7 -58 -20 -70 -27 -13 -8 -23
-12 -23 -9 0 3 -15 -1 -34 -9 -19 -8 -37 -12 -40 -8 -3 3 -6 0 -6 -6 0 -7 -6
-12 -14 -12 -8 0 -27 -5 -43 -11 -67 -28 -153 -57 -153 -52 0 3 -6 1 -12 -5
-11 -9 -184 -79 -213 -86 -13 -4 -41 -15 -90 -37 -23 -10 -53 -21 -68 -24 -15
-4 -27 -10 -27 -14 0 -4 -10 -7 -22 -8 -11 -1 -25 -8 -29 -15 -5 -7 -9 -10 -9
-6 0 4 -19 -1 -42 -11 -44 -19 -79 -33 -88 -36 -3 -1 -25 -10 -50 -21 -25 -10
-48 -18 -52 -16 -5 1 -8 -3 -8 -10 0 -6 -3 -9 -6 -5 -4 3 -19 0 -35 -9 -16 -8
-31 -15 -34 -15 -2 0 -58 -24 -124 -54 -66 -29 -122 -50 -125 -47 -3 3 -6 0
-6 -6 0 -7 -3 -11 -7 -10 -7 1 -54 -19 -173 -75 -25 -11 -47 -21 -50 -22 -3
-1 -22 -9 -42 -18 -21 -9 -55 -25 -75 -34 -21 -9 -41 -16 -45 -15 -5 1 -8 -3
-8 -8 0 -6 -5 -10 -11 -10 -5 0 -40 -15 -77 -32 -37 -18 -69 -33 -72 -34 -17
-3 -160 -76 -165 -85 -4 -5 -10 -7 -15 -4 -5 3 -16 -2 -24 -11 -9 -8 -16 -13
-16 -10 0 4 -45 -16 -100 -44 -92 -46 -121 -70 -86 -70 8 0 38 -16 67 -35 30
-19 59 -35 66 -35 7 0 13 -4 13 -10 0 -5 16 -16 35 -24 19 -8 35 -20 35 -26 0
-6 5 -8 10 -5 6 3 10 1 10 -5 0 -6 5 -8 11 -5 6 4 17 -1 24 -11 8 -11 15 -16
15 -11 0 4 8 0 18 -9 27 -24 192 -124 192 -116 0 4 5 -1 11 -10 5 -10 16 -18
23 -18 7 0 25 -11 40 -25 14 -13 26 -22 26 -19 0 3 13 -4 29 -15 16 -12 34
-21 40 -21 6 0 11 -4 11 -8 0 -5 16 -17 35 -28 19 -10 35 -22 35 -25 0 -4 14
-10 30 -14 17 -4 30 -12 30 -19 0 -6 12 -17 28 -24 49 -23 72 -37 72 -44 0 -3
29 -23 65 -42 35 -20 67 -41 70 -46 4 -6 11 -8 16 -5 5 4 9 2 9 -4 0 -5 17
-20 38 -32 20 -13 39 -27 40 -31 2 -4 8 -8 13 -8 5 0 40 -22 79 -50 39 -27 73
-50 76 -50 3 0 12 -6 19 -12 33 -30 45 -38 55 -38 5 0 10 -4 10 -10 0 -5 5
-10 12 -10 6 0 35 -18 64 -40 29 -22 57 -40 63 -40 5 0 12 -7 15 -16 3 -8 10
-12 16 -9 6 3 13 -1 16 -9 3 -9 11 -16 16 -16 6 0 23 -10 38 -22 55 -44 115
-87 123 -87 4 -1 15 -9 25 -18 10 -10 29 -25 42 -33 12 -8 29 -21 36 -28 8 -7
14 -11 14 -7 0 3 29 -17 65 -45 35 -27 67 -50 70 -50 3 0 17 -11 31 -25 14
-14 29 -25 34 -25 5 0 15 -6 22 -12 29 -28 179 -138 187 -138 5 0 11 -7 15
-15 3 -8 10 -15 16 -15 9 0 18 -7 71 -55 9 -8 19 -15 22 -15 9 0 190 -140 199
-154 4 -6 8 -8 8 -3 0 4 8 -1 18 -10 10 -10 30 -27 46 -38 42 -31 74 -56 136
-107 32 -27 62 -48 67 -48 4 0 14 -9 21 -20 7 -11 18 -20 25 -20 7 0 18 -9 25
-20 7 -11 18 -20 26 -20 7 0 22 -11 32 -25 10 -14 24 -25 31 -25 7 0 16 -6 20
-13 4 -7 20 -22 34 -32 69 -52 225 -181 232 -192 4 -7 15 -13 22 -13 8 0 15
-3 15 -7 0 -5 26 -29 58 -55 31 -25 71 -58 87 -72 l30 -26 37 78 c49 103 82
176 83 182 0 3 8 21 17 40 25 54 104 242 112 268 4 12 12 22 17 22 5 0 8 3 8
8 -4 18 15 72 24 72 6 0 8 3 5 6 -4 3 5 31 19 62 36 83 40 92 59 147 10 28 23
53 28 57 6 4 7 8 2 8 -5 0 -4 6 2 13 6 6 10 16 10 20 0 11 44 121 51 127 3 3
8 14 9 25 2 11 19 59 38 106 19 47 34 91 34 98 0 6 5 11 11 11 5 0 8 4 5 8 -2
4 6 33 18 65 13 31 21 59 18 62 -3 3 0 5 6 5 6 0 9 7 6 15 -4 8 -1 15 6 15 6
0 9 4 5 9 -3 5 -1 12 5 16 5 3 10 12 10 20 0 8 5 26 12 42 6 15 12 33 14 38
14 55 101 292 109 297 6 4 7 8 2 8 -4 0 -1 16 7 35 8 19 13 35 10 35 -3 0 1
10 8 23 6 12 13 27 14 33 5 31 60 189 67 192 4 2 5 8 2 12 -3 5 1 25 9 45 8
19 16 39 16 43 1 4 15 52 32 107 17 55 31 106 31 113 0 6 4 12 10 12 5 0 7 6
4 13 -2 6 0 20 5 30 5 10 11 26 13 35 14 57 29 108 34 112 3 3 7 12 7 20 4 33
13 69 24 89 6 12 8 21 6 21 -3 0 -1 12 5 28 6 15 12 35 15 46 2 10 11 44 20
75 19 66 25 92 26 109 1 6 5 12 9 12 4 0 6 11 4 25 -1 14 2 25 8 25 6 0 8 3 4
6 -3 3 -1 18 5 33 5 14 12 37 14 51 5 38 9 54 16 66 4 6 10 25 13 42 3 17 9
42 15 56 5 15 7 26 4 26 -4 0 -1 6 5 13 6 8 8 16 6 19 -3 3 -1 18 5 33 6 16
13 40 15 54 5 30 13 65 15 69 2 1 3 5 4 10 5 16 29 128 30 137 1 6 4 15 7 20
4 6 5 18 4 28 -2 9 0 17 5 17 5 0 7 8 5 18 -1 9 0 22 4 27 3 6 6 15 7 20 1 6
7 37 15 70 7 33 13 62 14 65 1 5 13 63 19 95 2 11 5 25 6 30 6 28 -7 45 -22
30z"/>
<path d="M19515 26472 c-3 -3 -90 -7 -193 -9 -229 -3 -451 -10 -454 -13 -2 -1
-14 -3 -28 -4 -14 0 -31 -5 -37 -9 -7 -5 -13 -4 -13 0 0 9 -121 10 -136 0 -5
-3 -46 -5 -89 -5 -44 0 -87 -3 -95 -5 -15 -6 -165 -15 -265 -18 -27 0 -54 -4
-59 -7 -5 -3 -39 -7 -75 -9 -135 -6 -186 -10 -191 -13 -5 -3 -53 -6 -168 -13
-34 -2 -65 -7 -69 -11 -3 -3 -32 -6 -63 -6 -31 0 -60 -3 -64 -7 -9 -10 -46
-11 -46 -2 0 4 -13 3 -29 -2 -16 -6 -51 -12 -78 -13 -26 -2 -48 -5 -48 -6 0
-1 -22 -4 -50 -6 -27 -3 -66 -6 -85 -8 -19 -1 -44 -5 -55 -9 -11 -3 -51 -9
-90 -12 -38 -3 -99 -10 -135 -15 -36 -6 -78 -11 -95 -13 -16 -1 -34 -5 -40 -8
-5 -3 -23 -5 -40 -4 -16 2 -34 0 -40 -4 -5 -3 -23 -7 -40 -8 -16 -2 -43 -5
-60 -8 -16 -2 -64 -9 -105 -15 -41 -6 -82 -14 -90 -17 -8 -3 -30 -5 -47 -4
-18 2 -33 -2 -33 -7 0 -5 -17 -9 -37 -10 -49 -2 -94 -8 -113 -15 -8 -3 -22 -6
-30 -6 -54 -2 -105 -11 -108 -19 -1 -5 -14 -7 -27 -4 -14 2 -33 1 -42 -3 -10
-5 -22 -7 -27 -6 -6 1 -21 -3 -34 -10 l-24 -13 3 -531 c1 -291 6 -535 11 -542
5 -7 5 -14 -2 -18 -7 -4 -7 -12 0 -26 8 -13 7 -19 0 -19 -6 0 -8 -5 -4 -12 10
-17 11 -58 2 -64 -5 -3 -5 -10 -2 -16 4 -6 8 -52 10 -102 7 -225 23 -565 39
-796 2 -36 6 -101 9 -145 3 -44 8 -116 12 -160 3 -44 8 -100 9 -125 2 -25 4
-45 5 -45 1 0 3 -8 5 -17 2 -10 -1 -18 -6 -18 -6 0 -7 -5 -3 -12 4 -7 9 -26
10 -43 1 -16 3 -30 4 -30 1 0 3 -25 4 -55 1 -30 5 -60 9 -67 4 -6 3 -14 -3
-18 -6 -4 -7 -12 -3 -18 5 -7 9 -28 10 -47 2 -53 12 -122 17 -128 3 -2 1 -13
-4 -23 -6 -10 -6 -20 -2 -23 5 -3 10 -24 11 -48 1 -24 3 -56 5 -73 3 -16 8
-61 12 -100 10 -98 11 -110 13 -110 2 0 5 -27 7 -60 7 -95 12 -140 14 -140 2
0 4 -18 5 -40 2 -22 4 -42 5 -45 1 -3 2 -17 2 -32 1 -16 5 -28 11 -28 5 0 4
-6 -2 -14 -7 -8 -8 -17 -3 -20 5 -3 9 -21 10 -39 1 -19 4 -50 7 -68 7 -35 14
-96 19 -159 2 -19 5 -35 6 -35 1 0 3 -11 5 -25 4 -43 17 -132 21 -154 2 -12 5
-38 6 -58 1 -21 4 -38 7 -38 4 0 7 -19 9 -42 5 -89 6 -90 87 -74 39 8 85 16
110 20 11 2 27 6 35 9 21 9 179 38 213 39 15 1 27 4 27 8 0 3 12 7 28 8 41 2
85 9 102 15 19 7 183 32 193 29 4 -1 7 2 7 7 0 4 12 8 28 9 39 1 117 9 117 12
0 3 46 9 101 13 22 2 46 7 52 11 7 4 17 4 22 1 6 -3 10 -1 10 5 0 6 4 9 10 5
5 -3 37 -1 72 5 35 6 79 13 98 14 19 2 35 5 35 6 0 1 18 4 40 6 105 10 121 12
135 17 8 3 22 5 30 5 18 0 96 8 210 23 47 6 104 10 127 9 23 0 44 3 47 8 3 5
30 8 61 7 30 -1 55 1 55 4 0 4 21 8 48 9 26 1 83 5 127 8 44 4 112 8 150 10
39 1 77 4 85 7 28 10 483 34 760 41 91 2 165 5 165 6 0 1 50 4 110 5 61 1 115
3 120 5 6 1 12 1 15 0 15 -6 448 -5 462 2 9 4 19 5 22 0 2 -4 45 -7 95 -6 50
1 91 -2 91 -5 0 -4 73 -8 163 -9 263 -4 545 -19 877 -46 67 -6 176 -15 250
-20 30 -2 55 -5 55 -6 0 -1 23 -4 50 -5 28 -1 57 -5 66 -9 9 -4 35 -5 58 -3
22 2 41 1 41 -3 0 -6 177 -28 250 -30 19 -1 42 -4 50 -7 17 -6 72 -12 138 -15
23 -1 42 -5 42 -9 0 -3 15 -6 33 -6 18 1 38 -2 44 -6 6 -4 22 -6 34 -5 13 1
58 -5 99 -12 41 -8 81 -13 88 -11 8 1 19 -2 25 -6 7 -5 27 -8 45 -8 17 1 32
-2 32 -5 0 -3 15 -6 33 -5 17 1 37 -1 42 -4 6 -3 21 -7 35 -8 14 -1 39 -5 55
-7 17 -3 55 -10 85 -15 30 -6 69 -13 85 -17 17 -3 37 -6 45 -6 8 0 22 -2 30
-6 8 -3 24 -6 35 -7 11 -1 28 -5 38 -10 9 -4 26 -5 37 -2 10 3 20 2 22 -2 2
-4 46 -15 98 -24 52 -9 106 -19 120 -22 41 -10 74 -16 96 -19 11 -1 26 -6 33
-10 7 -4 14 -6 16 -4 5 5 17 82 19 121 0 15 3 27 6 27 3 0 6 17 7 38 1 20 4
51 7 67 3 17 7 46 9 65 2 20 6 40 9 45 2 6 4 22 3 38 -1 15 1 27 4 27 3 0 7
19 9 43 2 42 9 102 12 102 1 0 3 18 5 40 5 47 13 123 20 180 10 77 15 130 18
167 1 21 6 38 10 38 4 0 3 8 -2 18 -6 11 -6 23 -1 28 5 5 12 45 16 89 4 44 8
94 9 110 2 17 4 30 5 30 1 0 3 23 5 50 2 28 4 50 4 50 1 0 4 26 6 57 2 32 6
62 9 67 4 5 2 13 -4 16 -7 4 -8 11 -1 18 5 7 12 53 16 102 4 50 8 108 10 130
2 22 6 73 9 113 3 39 8 77 11 82 3 6 1 10 -6 10 -8 0 -8 4 -2 13 6 6 11 37 13
67 1 30 4 78 6 105 2 28 6 97 9 155 4 58 7 116 8 130 1 14 7 28 12 32 6 5 5 8
-3 8 -7 0 -10 5 -7 10 4 6 8 54 10 108 3 53 7 147 10 207 4 61 7 161 8 222 1
62 4 113 7 113 3 0 5 71 5 158 0 91 4 163 10 171 8 12 7 13 -5 6 -12 -7 -13
-6 -4 6 5 8 9 25 7 39 -5 34 -5 38 0 93 2 26 0 50 -5 53 -5 3 -5 11 -1 17 5 7
8 202 9 434 l1 423 -21 -1 c-12 0 -59 7 -106 15 -47 8 -96 16 -110 18 -14 2
-29 6 -35 9 -5 3 -22 5 -37 4 -16 -1 -28 1 -28 4 0 4 -15 8 -32 9 -18 1 -42 3
-53 5 -11 2 -60 9 -110 16 -49 7 -97 15 -105 18 -8 3 -26 7 -40 8 -14 2 -43 6
-65 9 -60 8 -125 16 -170 21 -22 3 -67 9 -100 14 -140 22 -303 41 -367 43 -21
1 -38 4 -38 8 0 4 -23 7 -50 6 -28 -1 -50 2 -50 5 0 4 -21 7 -47 8 -83 4 -167
12 -183 18 -17 6 -85 12 -172 13 -32 1 -58 5 -58 9 0 3 -30 8 -67 9 -38 1 -99
3 -138 5 -38 1 -72 5 -75 8 -6 8 -320 29 -422 28 -43 0 -78 4 -78 8 0 10 -126
10 -136 1 -3 -4 -18 -2 -33 3 -14 6 -27 10 -28 10 -2 -1 -4 0 -5 0 -3 1 -48 3
-468 15 -279 8 -1178 12 -1185 6z"/>
<path d="M9842 24138 c-52 -26 -98 -46 -103 -42 -5 3 -9 1 -9 -4 0 -5 -27 -23
-60 -40 -33 -18 -60 -29 -60 -25 0 3 -8 -1 -17 -9 -21 -17 -271 -141 -275
-136 -2 2 -10 -3 -18 -10 -17 -15 -66 -42 -190 -104 -47 -23 -91 -48 -98 -55
-7 -7 -20 -13 -28 -13 -8 0 -14 -5 -14 -11 0 -5 -4 -7 -10 -4 -5 3 -10 1 -10
-6 0 -7 -3 -10 -6 -6 -4 3 -30 -9 -59 -28 -29 -18 -56 -31 -59 -28 -3 4 -6 1
-6 -6 0 -7 -4 -9 -10 -6 -5 3 -10 1 -10 -5 0 -6 -4 -8 -10 -5 -5 3 -10 1 -10
-4 0 -6 -6 -11 -12 -11 -7 0 -24 -9 -38 -20 -14 -11 -33 -20 -42 -20 -10 0
-18 -4 -18 -10 0 -5 -19 -19 -42 -30 -24 -11 -65 -34 -93 -51 -27 -16 -62 -35
-77 -41 -16 -7 -28 -16 -28 -20 0 -4 -7 -8 -15 -8 -8 0 -15 -5 -15 -11 0 -6
-6 -9 -12 -7 -7 3 -18 0 -25 -6 -37 -33 -48 -41 -53 -38 -3 1 -13 -5 -23 -13
-9 -8 -21 -15 -26 -15 -4 0 -25 -11 -45 -25 -20 -13 -36 -22 -36 -19 0 2 -10
-4 -22 -16 -12 -11 -27 -20 -34 -20 -6 0 -22 -8 -35 -18 -13 -10 -44 -30 -69
-43 -25 -13 -47 -27 -50 -30 -11 -12 -136 -84 -142 -81 -5 1 -8 -2 -8 -8 0 -5
-17 -18 -39 -28 -21 -11 -45 -24 -52 -31 -26 -22 -114 -75 -121 -73 -5 1 -8
-2 -8 -7 0 -5 -19 -19 -42 -31 -24 -12 -49 -29 -55 -38 -7 -9 -13 -12 -13 -8
0 4 -12 -2 -26 -13 -15 -12 -31 -21 -36 -21 -5 0 -16 -6 -23 -12 -30 -27 -44
-38 -50 -38 -3 0 -28 -16 -56 -35 -28 -19 -56 -35 -62 -35 -6 0 -7 -3 -4 -6 4
-4 -11 -16 -33 -28 -22 -12 -49 -29 -60 -38 -11 -10 -25 -18 -30 -18 -6 0 -13
-7 -16 -15 -4 -8 -10 -13 -14 -10 -4 3 -13 -2 -20 -10 -7 -8 -17 -15 -22 -15
-5 0 -18 -9 -30 -20 -12 -11 -27 -20 -34 -20 -6 0 -15 -7 -18 -16 -3 -8 -10
-13 -16 -9 -5 3 -15 -3 -22 -15 -7 -11 -18 -20 -25 -20 -7 0 -13 -4 -13 -10 0
-5 -4 -10 -9 -10 -13 0 -95 -55 -111 -75 -7 -8 -16 -13 -20 -10 -4 3 -10 -2
-14 -10 -3 -8 -12 -15 -21 -15 -8 0 -15 -4 -15 -10 0 -5 -4 -10 -10 -10 -5 0
-45 -27 -89 -60 -44 -33 -82 -60 -85 -60 -4 0 -15 -8 -26 -17 -11 -10 -29 -26
-40 -35 -11 -10 -24 -18 -30 -18 -5 0 -10 -4 -10 -10 0 -5 -4 -10 -10 -10 -8
0 -75 -45 -117 -80 -7 -6 -15 -9 -18 -8 -2 2 -12 -7 -20 -19 -9 -13 -21 -23
-26 -23 -6 0 -17 -6 -24 -12 -22 -20 -63 -52 -145 -112 -41 -30 -84 -64 -95
-76 -12 -11 -24 -20 -28 -20 -8 0 -44 -28 -66 -52 -8 -10 -20 -18 -26 -18 -5
0 -30 -18 -53 -40 -24 -22 -48 -40 -52 -40 -5 0 -21 -12 -35 -27 -14 -15 -25
-25 -25 -21 0 3 -13 -6 -29 -20 -16 -15 -41 -37 -57 -49 -115 -90 -209 -167
-212 -175 -2 -4 -8 -8 -13 -8 -5 0 -32 -22 -61 -50 -29 -27 -57 -50 -62 -50
-6 0 -24 -13 -40 -29 -60 -58 -96 -89 -96 -84 0 5 -27 -19 -112 -99 -16 -16
-33 -28 -37 -28 -4 0 -28 -19 -53 -42 -24 -24 -63 -59 -85 -78 -22 -19 -62
-53 -87 -75 -26 -22 -73 -65 -105 -96 l-59 -55 39 -55 c21 -30 43 -59 48 -66
6 -7 11 -15 11 -18 0 -4 6 -13 13 -20 26 -30 37 -44 37 -50 0 -3 5 -11 11 -18
5 -7 37 -50 70 -97 33 -47 66 -92 73 -101 7 -9 28 -39 47 -68 19 -28 37 -51
41 -51 5 0 8 -5 8 -11 0 -11 60 -92 73 -97 4 -2 7 -10 7 -17 0 -7 7 -15 15
-19 8 -3 15 -10 15 -16 0 -6 5 -16 10 -23 42 -49 56 -67 83 -107 17 -25 36
-50 42 -57 12 -15 15 -18 95 -123 86 -113 83 -109 103 -131 9 -10 17 -22 17
-25 0 -3 6 -12 13 -19 15 -18 16 -19 111 -140 43 -55 85 -105 92 -111 8 -6 14
-15 14 -20 0 -5 12 -22 26 -37 45 -49 124 -146 124 -153 0 -4 8 -14 18 -23 9
-9 38 -41 62 -71 52 -64 89 -107 110 -130 8 -9 33 -38 55 -65 22 -28 50 -61
62 -75 51 -59 67 -77 96 -114 18 -21 48 -55 67 -76 19 -20 50 -54 68 -76 39
-46 125 -143 167 -188 17 -18 59 -66 95 -106 36 -40 93 -102 128 -138 34 -36
62 -67 62 -69 0 -3 63 -70 216 -229 44 -46 78 -86 76 -89 -3 -3 3 -5 13 -5 10
0 16 -3 13 -6 -3 -3 75 -86 174 -185 l180 -180 62 60 c33 33 108 101 166 152
58 50 126 110 152 133 26 22 61 52 79 66 17 14 46 39 65 57 18 17 40 35 47 40
14 7 113 92 143 121 7 6 16 12 21 12 4 0 14 9 21 20 7 11 16 20 22 20 5 0 20
10 33 23 55 51 75 67 82 67 4 0 18 11 31 26 13 14 24 21 24 17 0 -4 4 -3 8 2
9 14 209 175 216 175 5 0 37 27 86 72 10 9 21 14 23 11 3 -3 12 4 19 16 7 12
16 21 20 21 9 0 129 90 140 105 5 6 8 6 8 1 0 -6 7 -1 15 10 8 10 15 15 15 10
0 -5 14 6 30 24 17 18 30 31 30 27 0 -6 97 60 146 101 12 9 32 24 44 32 12 8
28 21 36 28 7 6 15 12 19 12 3 0 30 18 59 40 29 22 56 40 60 40 4 0 19 11 34
25 15 14 32 25 38 25 7 0 14 7 18 15 3 8 12 15 21 15 8 0 15 5 15 10 0 6 6 10
13 10 8 0 22 9 32 20 10 11 23 20 30 20 7 0 20 9 30 20 10 11 21 17 25 15 4
-3 10 2 14 10 3 8 12 15 21 15 8 0 15 5 15 10 0 6 6 10 13 10 7 0 22 8 33 18
11 11 24 21 29 23 13 5 129 82 135 90 3 3 12 9 20 13 23 11 52 29 87 54 17 12
36 22 42 22 6 0 11 4 11 9 0 5 14 14 30 20 17 5 30 14 30 19 0 5 8 13 18 16
20 8 47 23 88 53 17 12 43 27 58 33 14 5 26 14 26 20 0 6 5 8 10 5 6 -3 10 -1
10 5 0 6 4 9 9 5 5 -3 16 3 23 12 7 10 19 19 27 21 8 2 27 12 42 23 15 10 31
19 36 19 5 0 19 9 31 20 12 12 22 18 22 14 0 -4 9 1 20 11 11 10 20 14 20 9 0
-5 4 -4 8 2 4 7 23 21 42 32 96 57 162 92 170 92 6 0 10 5 10 11 0 5 5 7 10 4
6 -3 10 -2 10 3 0 6 20 19 45 31 25 12 45 26 45 32 0 5 4 8 9 4 5 -3 12 -1 16
5 4 6 11 8 16 5 5 -4 9 -1 9 4 0 6 3 10 8 9 8 -3 63 32 73 45 3 5 10 9 15 9
15 1 79 32 82 41 2 4 10 7 18 7 8 0 14 4 14 10 0 5 3 9 8 8 10 -2 102 43 125
62 10 8 21 15 25 16 11 1 146 67 152 74 3 3 25 14 50 25 25 11 48 24 52 30 5
6 8 6 8 0 0 -6 4 -5 8 1 9 15 173 99 190 97 6 0 12 3 12 7 0 5 14 11 30 15 17
4 30 11 30 16 0 5 3 8 8 7 7 -1 45 15 72 31 8 5 38 20 65 33 28 12 52 26 53
31 2 4 10 7 18 7 18 0 107 41 115 53 3 5 9 8 13 8 6 -1 37 12 141 60 33 15 75
33 93 39 17 7 32 16 32 20 0 3 7 7 15 8 8 1 22 3 30 4 8 1 15 5 15 10 0 4 4 8
9 8 5 0 31 10 58 22 26 12 51 21 56 20 4 -1 7 2 7 8 0 5 7 7 15 4 8 -4 15 -2
15 3 0 6 19 16 43 23 23 8 50 20 60 28 9 8 17 12 17 7 0 -4 7 -2 15 5 8 7 15
10 15 6 0 -3 15 3 33 14 17 11 37 20 43 20 6 0 29 8 50 17 22 9 42 16 47 15 4
-1 7 3 7 8 0 6 6 10 13 9 6 -1 30 6 52 16 22 10 43 18 48 17 4 -1 7 3 7 9 0 5
4 8 8 5 5 -3 22 2 38 10 16 9 30 15 32 15 1 -1 19 6 40 15 20 8 45 17 54 19 9
2 25 8 36 14 11 6 22 7 26 4 3 -3 6 -1 6 5 0 6 15 14 33 18 42 10 38 9 70 22
16 7 32 12 37 12 24 0 13 32 -29 77 -25 28 -66 74 -91 103 -61 71 -116 133
-159 180 -20 21 -67 73 -106 115 -38 43 -96 105 -127 138 -32 33 -58 61 -58
62 0 1 -36 39 -80 85 -44 46 -80 85 -80 87 0 7 -803 805 -924 918 -65 61 -142
133 -172 160 -29 28 -83 77 -119 110 -37 33 -81 74 -98 90 -18 17 -63 57 -102
90 -38 33 -82 72 -97 88 -15 15 -32 27 -38 27 -5 0 -10 6 -10 13 0 8 -8 18
-19 23 -18 9 -118 93 -167 142 -13 12 -25 22 -28 22 -3 0 -21 16 -41 35 -19
20 -35 34 -35 31 0 -2 -19 12 -42 32 -79 70 -87 77 -124 107 -21 17 -51 42
-67 58 -17 15 -33 27 -36 27 -3 0 -25 17 -47 38 -23 20 -56 48 -74 62 -18 14
-40 32 -49 40 -9 8 -70 58 -136 110 -66 52 -121 98 -123 102 -2 5 -8 8 -14 8
-6 0 -18 8 -27 18 -9 9 -45 39 -81 67 -36 27 -66 53 -68 57 -2 5 -9 8 -16 8
-7 0 -21 9 -32 21 -35 39 -45 38 -142 -13z"/>
<path d="M29989 24137 c-36 -29 -80 -63 -98 -77 -18 -14 -45 -35 -59 -47 -15
-12 -56 -45 -92 -72 -36 -28 -76 -60 -90 -71 -14 -11 -40 -33 -59 -48 -19 -15
-45 -37 -58 -50 -13 -13 -23 -20 -23 -17 0 3 -8 -3 -18 -12 -9 -10 -45 -40
-80 -67 -34 -27 -62 -53 -62 -58 0 -5 -4 -6 -10 -3 -5 3 -10 2 -10 -2 0 -5
-21 -25 -47 -46 -27 -20 -61 -48 -78 -62 -59 -52 -104 -91 -146 -125 -23 -19
-47 -39 -53 -45 -6 -5 -45 -39 -86 -75 -41 -36 -81 -70 -88 -77 -7 -7 -18 -13
-23 -13 -6 0 -7 -4 -4 -10 3 -5 2 -10 -3 -10 -5 0 -20 -10 -34 -22 -14 -13
-56 -50 -93 -83 -37 -33 -91 -81 -119 -106 -28 -26 -67 -61 -86 -78 -19 -17
-38 -31 -42 -31 -5 0 -8 -7 -8 -15 0 -8 -4 -15 -8 -15 -4 0 -28 -19 -52 -41
-381 -353 -656 -621 -1000 -976 -165 -170 -321 -336 -422 -447 -29 -32 -77
-83 -105 -113 -29 -31 -53 -57 -53 -59 0 -2 -12 -16 -27 -32 -29 -30 -138
-152 -185 -206 -14 -17 -40 -46 -57 -65 -33 -37 -40 -57 -16 -47 8 3 15 1 15
-4 0 -6 3 -9 8 -8 4 2 23 -3 42 -11 19 -7 53 -20 75 -28 22 -8 48 -19 58 -24
10 -5 22 -7 26 -4 5 2 14 -2 21 -10 7 -8 18 -15 24 -15 7 0 49 -16 95 -35 46
-19 88 -32 92 -29 5 3 9 0 9 -5 0 -6 7 -11 15 -11 8 0 15 -5 15 -11 0 -5 4 -7
10 -4 5 3 20 -1 33 -9 12 -9 32 -17 42 -19 11 -2 43 -13 70 -26 28 -13 55 -24
60 -25 6 -2 30 -12 55 -23 65 -29 84 -36 93 -35 4 1 7 -3 7 -10 0 -6 3 -8 7
-5 3 4 12 2 20 -4 7 -6 13 -8 13 -3 0 5 4 4 8 -2 7 -12 128 -65 150 -66 6 -1
12 -5 12 -10 0 -4 5 -8 11 -8 6 0 48 -17 93 -39 44 -21 98 -44 119 -52 20 -7
37 -17 37 -22 0 -4 5 -5 10 -2 6 3 10 1 10 -5 0 -6 5 -8 10 -5 6 3 10 2 10 -3
0 -6 11 -13 25 -16 29 -7 219 -99 238 -114 7 -6 14 -11 17 -11 19 -2 83 -31
200 -91 74 -38 178 -91 230 -117 52 -26 98 -52 102 -58 4 -5 8 -7 8 -2 0 4 17
-3 38 -16 20 -14 55 -33 77 -44 78 -39 220 -116 225 -122 10 -12 50 -31 65
-31 8 0 15 -4 15 -9 0 -5 24 -20 53 -35 28 -14 68 -36 87 -48 19 -11 56 -33
82 -47 25 -14 70 -40 100 -58 29 -17 57 -32 62 -31 5 0 12 -5 15 -10 5 -7 69
-48 166 -105 11 -7 23 -16 27 -22 4 -5 8 -7 8 -3 0 5 30 -12 66 -37 36 -25 68
-45 71 -45 3 0 25 -13 50 -30 24 -16 48 -30 53 -30 5 0 16 -10 24 -22 11 -15
16 -18 16 -8 1 12 3 11 11 -2 5 -10 17 -18 25 -18 8 0 17 -7 20 -15 4 -8 12
-15 19 -15 8 0 21 -7 29 -16 9 -8 16 -13 16 -9 0 3 10 -3 22 -14 11 -11 24
-18 28 -16 5 3 10 -1 13 -8 3 -8 21 -22 41 -31 20 -9 36 -21 36 -27 0 -6 4 -8
9 -4 5 3 12 1 15 -4 9 -14 124 -91 136 -91 5 0 10 -4 10 -10 0 -5 6 -10 14
-10 8 0 16 -4 18 -8 2 -5 35 -29 73 -55 39 -26 93 -62 120 -82 28 -19 59 -40
69 -47 11 -7 27 -20 37 -30 9 -9 19 -15 21 -13 2 2 24 -12 48 -32 25 -19 63
-47 85 -61 22 -14 44 -31 48 -38 4 -8 12 -14 17 -14 10 0 117 -78 154 -112 11
-10 23 -18 28 -18 4 0 16 -8 26 -17 20 -20 58 -49 92 -73 13 -8 59 -44 105
-80 45 -36 97 -76 115 -90 18 -14 38 -30 44 -35 6 -6 32 -25 58 -43 26 -18 52
-40 57 -50 6 -9 11 -12 11 -7 0 7 3 6 8 0 4 -6 36 -34 72 -63 36 -28 74 -61
85 -72 12 -11 24 -20 29 -20 4 0 23 -15 42 -32 71 -69 104 -98 110 -98 3 0 18
-11 32 -24 116 -104 212 -186 216 -186 3 0 25 -19 49 -42 62 -60 126 -118 132
-118 3 0 33 -28 67 -62 47 -45 64 -57 66 -45 2 10 8 17 13 17 12 0 79 69 79
81 0 5 4 9 10 9 5 0 30 20 55 45 25 25 45 50 45 55 0 6 7 10 15 10 8 0 15 3
15 8 0 4 44 52 98 108 53 56 140 146 192 201 95 101 116 124 265 287 44 48 99
108 123 133 23 25 42 47 42 49 0 2 10 14 23 27 38 40 145 160 174 197 15 19
39 46 53 61 14 15 45 51 70 80 25 29 52 60 60 69 8 9 33 38 55 65 21 28 42 52
45 55 3 3 33 39 68 80 34 41 68 82 76 90 7 8 100 123 206 255 105 132 206 258
224 279 17 22 30 43 28 48 -1 4 2 8 6 8 4 0 26 24 47 53 22 28 44 57 50 63 5
7 19 24 30 39 11 16 52 70 90 121 39 51 78 103 87 116 9 13 24 32 33 43 8 11
33 45 55 75 22 30 44 60 50 67 5 7 10 15 10 18 0 3 8 15 19 26 10 11 35 45 56
77 22 31 44 62 49 67 6 6 29 37 51 70 22 33 42 62 45 65 3 3 23 32 45 65 21
33 41 62 45 65 3 3 21 29 40 58 18 28 37 52 42 52 6 0 -14 25 -43 55 -29 30
-54 53 -57 51 -2 -3 -22 15 -45 40 -22 24 -45 44 -51 44 -6 0 -26 18 -45 40
-19 22 -40 40 -47 40 -6 0 -26 16 -43 37 -17 20 -31 33 -31 29 0 -3 -17 9 -37
28 -34 31 -223 191 -298 251 -16 13 -41 34 -55 46 -14 11 -43 35 -64 52 -22
18 -81 67 -133 109 -51 43 -93 75 -93 72 0 -3 -11 7 -25 22 -14 15 -25 24 -25
20 0 -4 -11 4 -25 16 -57 51 -65 58 -71 58 -4 0 -68 50 -120 95 -7 6 -24 19
-40 30 -15 11 -33 25 -39 32 -7 7 -15 10 -18 7 -3 -3 -10 4 -17 15 -6 12 -15
21 -20 21 -5 0 -18 7 -27 15 -10 8 -54 41 -98 74 -44 33 -86 65 -92 71 -7 6
-15 11 -17 11 -3 0 -16 8 -28 19 -50 42 -158 119 -158 113 0 -4 -7 2 -15 13
-8 10 -15 15 -15 9 0 -5 -7 1 -16 13 -8 12 -22 22 -30 22 -8 0 -17 7 -20 15
-4 8 -13 15 -20 15 -8 0 -17 7 -20 15 -4 8 -11 15 -18 15 -6 0 -33 18 -61 40
-27 22 -53 40 -57 40 -5 0 -17 8 -27 18 -37 32 -50 42 -61 42 -5 0 -10 5 -10
10 0 6 -5 10 -11 10 -6 0 -41 22 -78 49 -100 73 -219 151 -231 151 -5 0 -10 8
-10 17 0 9 -3 13 -7 10 -3 -4 -15 0 -25 10 -10 9 -18 13 -18 9 0 -4 -6 -1 -14
6 -7 7 -22 19 -32 25 -11 7 -51 35 -91 62 -39 27 -74 46 -77 43 -3 -3 -6 0 -6
6 0 6 -19 21 -42 33 -24 12 -45 24 -48 28 -5 6 -16 13 -96 61 -29 16 -57 37
-64 45 -7 8 -18 15 -24 15 -7 0 -30 13 -52 30 -21 16 -44 30 -50 30 -6 0 -22
9 -35 21 -13 12 -41 30 -61 40 -21 11 -38 24 -38 29 0 6 -3 9 -7 9 -17 -3 -32
2 -45 14 -14 13 -43 30 -93 56 -16 9 -32 19 -35 22 -3 4 -25 17 -50 30 -25 13
-49 27 -55 31 -30 24 -115 76 -110 67 6 -9 -57 30 -82 51 -7 6 -13 8 -13 5 0
-4 -12 3 -26 14 -15 11 -30 18 -35 15 -5 -3 -9 -1 -9 5 0 6 -17 18 -37 28 -21
9 -40 20 -43 24 -3 3 -25 17 -50 29 -25 12 -57 31 -72 42 -16 11 -28 17 -28
14 0 -3 -16 6 -36 19 -19 13 -44 27 -55 30 -10 4 -19 11 -19 16 0 6 -5 7 -11
3 -6 -3 -14 -3 -18 2 -14 20 -137 85 -145 77 -3 -4 -6 -2 -6 4 0 5 -39 30 -87
54 -49 24 -89 47 -91 52 -2 4 -10 7 -18 7 -8 0 -14 5 -14 11 0 6 -7 9 -15 5
-8 -3 -15 -2 -15 3 0 4 -19 16 -42 27 -24 10 -46 22 -49 27 -3 5 -8 8 -10 7
-7 -3 -64 24 -70 33 -3 5 -10 9 -15 9 -23 2 -44 11 -44 19 0 5 -3 8 -7 7 -13
-2 -46 14 -80 40 -17 13 -34 23 -37 23 -4 -1 -28 10 -56 24 -27 14 -56 25 -65
25 -9 0 -18 7 -21 15 -4 8 -10 13 -15 10 -9 -6 -49 14 -60 29 -4 5 -12 5 -18
2 -6 -4 -11 -3 -11 2 0 9 -109 63 -125 61 -6 0 -40 -24 -76 -52z"/>
<path d="M19590 18110 c0 -3 -63 -6 -141 -5 -77 0 -143 -3 -146 -8 -2 -4 -41
-7 -86 -7 -93 0 -213 -6 -372 -21 -60 -5 -131 -10 -157 -10 -27 0 -48 -4 -48
-7 0 -4 -28 -8 -63 -9 -34 -1 -84 -4 -112 -7 -27 -4 -68 -8 -90 -11 -22 -2
-66 -7 -99 -10 -32 -3 -64 -10 -71 -15 -9 -8 -15 -8 -20 0 -3 6 -11 7 -17 4
-6 -4 -25 -8 -42 -10 -17 -1 -51 -6 -76 -9 -25 -4 -60 -7 -77 -8 -18 -1 -33
-4 -33 -8 0 -4 -15 -5 -32 -4 -18 2 -38 -1 -43 -5 -6 -5 -26 -9 -45 -10 -44 0
-90 -6 -110 -13 -8 -3 -40 -9 -70 -12 -30 -4 -64 -9 -75 -11 -39 -9 -90 -16
-112 -16 -13 0 -23 -4 -23 -9 0 -5 -16 -8 -35 -6 -19 3 -35 0 -35 -5 0 -5 -10
-8 -22 -7 -13 1 -30 -1 -38 -4 -8 -3 -31 -8 -50 -11 -35 -5 -66 -11 -117 -22
-16 -3 -37 -6 -48 -8 -11 -1 -28 -7 -39 -12 -18 -11 -17 -16 19 -130 48 -155
49 -159 44 -160 -2 0 1 -7 8 -15 6 -8 14 -26 16 -39 3 -14 10 -37 15 -51 6
-15 8 -30 5 -33 -4 -3 -1 -6 5 -6 7 0 12 -7 12 -16 0 -9 18 -71 41 -137 22
-67 42 -129 45 -137 12 -51 59 -176 68 -182 6 -4 8 -8 4 -8 -6 0 13 -69 32
-115 14 -33 23 -59 26 -73 1 -8 6 -21 10 -30 4 -9 8 -21 10 -27 1 -5 12 -35
24 -65 12 -30 23 -62 25 -70 2 -8 4 -16 5 -17 2 -2 3 -6 4 -10 2 -9 43 -118
53 -143 3 -8 7 -17 7 -20 1 -3 4 -9 7 -15 7 -12 20 -62 18 -71 0 -4 3 -10 8
-13 8 -5 69 -156 78 -191 3 -14 21 -61 44 -115 5 -11 30 -74 56 -140 26 -66
53 -133 60 -150 50 -115 135 -328 135 -336 0 -5 5 -9 12 -9 6 0 9 -3 5 -6 -3
-3 3 -23 14 -42 10 -20 19 -40 19 -45 0 -4 10 -29 21 -55 28 -61 57 -128 76
-172 17 -40 37 -82 89 -195 20 -44 37 -86 37 -92 0 -7 4 -13 9 -13 4 0 8 -4 8
-9 0 -11 72 -167 127 -276 20 -38 36 -72 36 -75 0 -8 32 -75 38 -80 3 -3 12
-22 20 -42 7 -21 17 -38 23 -38 5 0 7 -3 4 -6 -6 -5 235 -491 253 -509 5 -5 9
-17 9 -27 0 -10 4 -18 8 -18 5 0 16 -16 25 -35 16 -33 35 -44 50 -28 4 4 29 7
55 8 26 1 47 3 47 5 0 1 27 4 60 6 33 2 87 7 120 10 33 4 92 8 130 11 39 2
133 8 210 13 200 14 1087 13 1125 -1 3 -1 10 0 15 1 21 5 128 0 138 -7 5 -3
40 -5 78 -4 37 1 69 -2 72 -7 3 -4 28 -7 54 -5 26 1 55 0 63 -4 14 -6 55 -10
165 -16 28 -2 55 -6 60 -9 12 -7 37 17 28 26 -4 3 -1 6 6 6 7 0 9 5 6 10 -3 6
-1 10 6 10 7 0 10 3 7 6 -4 3 11 37 33 74 21 38 39 73 39 76 0 4 6 15 14 23 7
9 17 27 22 41 5 14 34 72 64 130 29 58 53 108 52 113 -1 4 3 7 9 7 6 0 9 7 5
15 -3 8 -1 15 4 15 6 0 10 7 10 15 0 8 4 15 10 15 5 0 9 3 8 8 -1 4 28 69 65
145 37 76 67 142 67 148 0 5 4 9 10 9 5 0 9 3 8 8 -1 4 5 21 12 37 7 17 14 32
15 35 0 3 9 21 20 40 11 19 18 39 17 44 -2 5 1 12 5 15 11 8 49 93 46 103 -2
5 1 8 6 8 5 0 13 10 16 23 4 12 20 49 35 82 50 107 91 202 95 215 0 3 6 15 13
28 7 12 9 22 5 22 -4 0 -3 4 2 8 12 8 138 300 138 320 0 6 4 12 9 12 4 0 8 5
8 10 0 6 9 29 19 53 21 47 29 69 27 77 0 3 9 21 22 41 12 20 22 43 22 51 0 8
9 32 19 54 11 22 23 52 26 67 4 15 11 27 16 27 5 0 8 3 7 8 -1 4 3 22 9 40 7
18 13 36 14 40 0 4 6 16 12 27 6 11 12 29 14 39 2 11 7 24 12 30 4 6 17 36 27
66 10 30 23 58 29 62 5 4 7 8 3 8 -5 0 35 117 61 175 5 11 14 34 19 50 6 17
20 55 32 85 12 30 23 62 25 70 1 8 8 29 14 45 7 17 31 82 53 145 21 63 43 124
48 135 7 16 19 51 25 75 1 3 4 12 7 20 14 35 63 175 63 180 1 3 9 30 20 60 11
30 20 58 21 63 1 4 2 8 4 10 1 1 3 9 5 17 3 15 72 233 83 260 3 8 6 17 7 20 0
3 11 39 24 80 13 41 25 82 27 90 2 8 11 37 20 63 18 52 16 59 -18 62 -13 1
-31 5 -41 10 -10 4 -21 5 -24 1 -3 -3 -11 -2 -17 3 -6 4 -49 14 -96 21 -47 7
-89 15 -94 18 -5 3 -25 7 -45 9 -56 5 -76 8 -86 15 -6 3 -22 5 -37 4 -16 -1
-28 1 -28 5 0 4 -14 6 -31 5 -16 -1 -32 1 -35 6 -3 4 -25 8 -50 8 -24 0 -44 3
-44 8 0 4 -15 8 -32 8 -18 1 -53 4 -78 8 -25 3 -61 9 -80 11 -19 3 -53 7 -75
10 -22 3 -58 8 -80 10 -43 4 -97 12 -105 15 -3 2 -7 2 -10 2 -3 0 -39 4 -80 9
-105 14 -168 20 -217 22 -24 1 -43 4 -43 8 0 3 -24 6 -52 7 -75 2 -174 10
-206 16 -15 3 -61 6 -102 7 -41 2 -79 5 -85 8 -5 2 -37 4 -72 3 -35 -1 -63 2
-63 6 0 4 -46 8 -103 9 -56 1 -169 4 -252 8 -207 8 -985 12 -985 5z"/>
<path d="M25209 17143 c-6 -19 -12 -42 -14 -51 -2 -9 -4 -17 -5 -17 -2 0 -11
-38 -12 -52 -1 -7 -6 -13 -11 -13 -6 0 -8 -3 -4 -6 3 -4 0 -22 -8 -40 -8 -19
-14 -35 -14 -37 0 -1 -2 -9 -4 -17 -3 -8 -11 -35 -18 -60 -16 -58 -15 -53 -22
-70 -3 -8 -17 -53 -32 -100 -14 -47 -27 -89 -29 -95 -2 -5 -5 -14 -6 -20 -2
-5 -10 -26 -18 -45 -8 -19 -13 -35 -12 -35 7 0 -26 -91 -35 -97 -5 -4 -7 -8
-3 -8 4 0 3 -12 -3 -27 -6 -16 -13 -35 -15 -43 -11 -44 -39 -115 -46 -118 -4
-2 -6 -7 -3 -12 2 -4 -9 -45 -26 -91 -40 -113 -39 -109 -36 -113 1 -1 -4 -10
-12 -20 -8 -9 -11 -19 -8 -23 4 -3 0 -15 -8 -27 -8 -11 -15 -28 -15 -38 0 -9
-6 -32 -14 -50 -21 -50 -38 -93 -37 -95 0 -2 -7 -19 -15 -40 -9 -20 -17 -44
-19 -53 -2 -9 -11 -34 -21 -56 -9 -21 -18 -41 -19 -44 -7 -29 -41 -121 -51
-142 -8 -15 -16 -35 -17 -45 -4 -17 -16 -52 -36 -98 -28 -66 -42 -102 -46
-117 -2 -5 -4 -10 -5 -13 -1 -3 -3 -8 -5 -12 -2 -8 -20 -55 -32 -83 -3 -8 -7
-17 -8 -20 -1 -3 -9 -22 -18 -44 -9 -21 -17 -40 -17 -42 0 -1 -5 -15 -12 -31
-6 -15 -12 -30 -13 -33 -8 -24 -27 -68 -35 -83 -6 -10 -8 -22 -5 -27 4 -6 3
-10 -2 -10 -4 0 -16 -21 -27 -48 -10 -26 -26 -65 -36 -87 -9 -22 -23 -57 -31
-77 -7 -21 -16 -38 -19 -38 -4 0 -7 -6 -7 -12 -1 -19 -7 -42 -13 -48 -3 -3
-14 -25 -24 -50 -10 -25 -25 -58 -34 -75 -9 -16 -15 -31 -14 -32 1 -3 -20 -55
-50 -123 -11 -25 -29 -64 -39 -87 -32 -73 -56 -126 -85 -188 -15 -33 -28 -63
-29 -67 -2 -5 -4 -10 -5 -13 -1 -3 -3 -8 -5 -12 -1 -5 -25 -57 -54 -118 -63
-130 -75 -157 -73 -167 1 -5 -3 -8 -9 -8 -5 0 -7 -4 -4 -10 3 -5 1 -10 -4 -10
-6 0 -11 -4 -11 -9 0 -6 -29 -71 -65 -146 -36 -74 -65 -140 -65 -145 0 -6 -4
-10 -10 -10 -5 0 -10 -5 -10 -11 0 -6 -18 -46 -40 -90 -22 -44 -35 -81 -30
-84 6 -3 10 -3 10 2 0 4 4 3 8 -2 4 -6 25 -16 47 -23 80 -27 150 -56 168 -71
13 -11 17 -11 17 -1 0 10 3 10 16 -1 9 -7 25 -15 37 -16 12 -2 24 -7 27 -11 3
-4 43 -22 90 -41 47 -18 112 -46 145 -61 63 -29 84 -37 99 -38 5 0 12 -5 16
-11 3 -6 16 -13 27 -15 12 -3 61 -25 110 -50 48 -24 100 -48 116 -51 15 -4 27
-11 27 -16 0 -5 9 -9 20 -9 11 0 20 -5 20 -11 0 -5 5 -7 10 -4 6 3 10 2 10 -3
0 -6 11 -13 25 -16 14 -4 25 -11 25 -16 0 -5 6 -7 13 -4 8 3 20 -2 27 -10 7
-9 16 -13 21 -10 5 3 9 0 9 -7 0 -7 3 -10 6 -6 4 3 26 -7 50 -23 23 -17 50
-30 58 -30 9 0 16 -4 16 -9 0 -4 20 -16 45 -25 25 -10 49 -24 53 -33 5 -8 12
-14 16 -13 8 2 74 -31 141 -71 28 -17 65 -37 83 -45 17 -8 32 -19 32 -24 0 -6
3 -9 8 -8 11 2 45 -13 63 -29 17 -14 55 -1 224 76 33 16 76 35 95 44 37 16
126 57 236 107 36 17 96 46 134 64 38 19 71 32 74 28 3 -3 6 0 6 7 0 7 4 10 9
7 5 -3 14 1 21 9 7 8 19 15 27 15 8 0 28 9 44 21 16 11 29 18 29 15 0 -3 65
28 145 69 80 40 145 71 145 68 0 -3 8 1 18 9 9 8 32 20 50 28 17 7 32 17 32
23 0 6 3 8 6 4 7 -6 215 101 226 117 4 6 8 7 8 2 0 -5 7 -3 15 4 8 7 15 9 15
5 0 -5 8 -1 18 7 9 9 76 46 147 84 72 37 132 70 135 73 3 3 31 19 62 34 32 16
60 33 63 38 4 5 15 9 26 9 10 0 19 4 19 8 0 5 23 19 50 32 28 13 50 26 50 30
0 3 12 11 28 17 26 11 64 33 179 101 28 17 54 28 57 25 3 -4 6 -1 6 5 0 7 7
12 15 12 8 0 15 4 15 10 0 5 11 12 25 16 14 3 25 10 25 16 0 5 5 6 10 3 6 -3
10 -2 10 3 0 5 12 15 28 23 15 7 62 35 105 61 43 27 83 48 87 48 5 0 14 8 19
18 6 9 11 14 11 10 0 -7 25 7 125 69 11 7 41 25 67 40 27 16 48 31 48 36 0 4
4 7 10 7 5 0 55 29 110 65 55 36 105 65 110 65 6 0 10 5 10 10 0 6 7 10 15 10
8 0 15 4 15 9 0 5 10 13 22 17 13 4 28 14 35 23 7 9 13 12 13 8 0 -5 7 -2 15
5 34 31 43 36 49 31 3 -4 6 -1 6 5 0 7 4 12 9 12 5 0 49 27 97 60 49 33 96 64
104 69 127 85 156 106 162 115 4 6 8 7 8 3 0 -6 36 18 105 70 6 5 22 14 38 22
15 8 27 18 27 22 0 5 16 16 35 25 19 9 35 20 35 25 0 5 7 9 15 9 8 0 15 5 15
11 0 5 5 7 10 4 6 -3 10 -2 10 4 0 5 16 19 35 31 20 12 42 29 50 37 8 8 15 12
15 9 0 -3 9 3 20 14 11 11 27 20 35 20 8 0 15 3 15 8 0 4 20 20 44 37 l43 30
-41 37 c-22 20 -44 37 -48 38 -4 0 -21 14 -36 30 -16 17 -33 30 -37 30 -4 0
-21 14 -37 30 -15 17 -31 30 -34 30 -4 0 -17 11 -30 26 -13 14 -24 22 -24 19
0 -4 -26 16 -58 44 -32 28 -62 51 -66 51 -4 0 -18 12 -31 26 -14 15 -25 24
-25 21 0 -3 -12 5 -27 18 -60 53 -71 62 -87 68 -9 4 -16 11 -16 17 0 5 -6 10
-13 10 -7 0 -20 8 -29 18 -9 9 -39 33 -68 52 -29 19 -59 43 -68 53 -9 9 -21
17 -27 17 -6 0 -17 9 -25 20 -8 11 -19 20 -25 20 -5 0 -22 10 -37 23 -15 12
-50 38 -77 57 -28 19 -63 45 -78 58 -16 13 -44 32 -65 42 -20 11 -38 23 -40
27 -4 11 -97 73 -108 73 -6 0 -10 4 -10 9 0 5 -13 14 -30 21 -16 7 -30 16 -30
21 0 5 -6 9 -14 9 -8 0 -16 3 -18 8 -3 8 -96 72 -104 72 -3 0 -14 9 -26 20
-12 11 -28 20 -35 20 -7 0 -13 5 -13 10 0 6 -7 10 -15 10 -7 0 -19 8 -24 18
-6 9 -11 14 -11 10 0 -6 -116 64 -166 99 -17 13 -45 30 -136 83 -49 29 -88 56
-88 61 0 5 -3 8 -7 7 -13 -3 -53 13 -53 22 0 4 -13 13 -30 19 -16 5 -30 15
-30 21 0 6 -4 9 -9 5 -5 -3 -16 2 -25 10 -8 9 -30 22 -48 31 -18 8 -55 28 -83
45 -27 16 -75 43 -105 60 -30 16 -82 45 -115 64 -33 18 -98 52 -145 76 -47 23
-87 44 -90 48 -11 13 -90 52 -90 44 0 -4 -4 -3 -8 3 -9 13 -250 134 -268 134
-8 0 -14 4 -14 8 0 10 -65 42 -86 42 -9 0 -12 5 -8 12 4 6 3 8 -3 5 -6 -4 -50
13 -99 38 -48 24 -92 41 -96 39 -4 -3 -8 -1 -8 4 0 4 -26 19 -57 32 -32 13
-88 38 -125 56 -37 17 -69 29 -72 26 -3 -3 -6 0 -6 7 0 7 -4 9 -10 6 -5 -3
-10 -1 -10 5 0 6 -4 8 -10 5 -5 -3 -10 -1 -10 5 0 6 -6 10 -12 8 -17 -3 -78
24 -78 35 0 5 -4 5 -10 2 -5 -3 -21 2 -35 11 -14 9 -28 14 -32 11 -3 -3 -12 0
-20 8 -8 8 -26 18 -41 22 -15 3 -46 14 -70 24 -23 10 -44 19 -47 19 -2 1 -30
12 -60 25 -31 14 -62 25 -70 25 -8 0 -15 5 -15 11 0 5 -4 7 -10 4 -5 -3 -10
-1 -10 5 0 6 -5 8 -10 5 -6 -4 -17 -1 -25 5 -8 6 -19 9 -25 5 -5 -3 -10 -2
-10 4 0 6 -16 13 -35 17 -19 3 -35 10 -35 14 0 4 -9 10 -20 13 -15 4 -22 -3
-31 -30z"/>
<path d="M14755 17160 c-3 -5 -14 -10 -24 -10 -9 0 -22 -5 -29 -12 -6 -6 -20
-13 -29 -15 -30 -6 -37 -9 -58 -20 -11 -6 -22 -11 -25 -11 -6 0 -47 -16 -110
-44 -25 -10 -53 -20 -63 -22 -10 -1 -26 -10 -37 -18 -10 -9 -21 -14 -24 -10
-4 3 -23 -4 -44 -15 -20 -12 -41 -23 -47 -24 -5 -1 -26 -9 -45 -17 -19 -9 -37
-16 -40 -17 -3 0 -15 -6 -27 -13 -13 -7 -23 -10 -23 -7 0 4 -15 -3 -33 -14
-19 -11 -37 -18 -40 -14 -4 3 -7 1 -7 -5 0 -7 -8 -12 -18 -12 -10 0 -27 -7
-38 -15 -12 -8 -24 -11 -28 -8 -3 3 -6 0 -6 -7 0 -7 -3 -11 -6 -8 -3 3 -38
-10 -77 -29 -40 -19 -73 -35 -75 -34 -1 1 -30 -13 -65 -31 -34 -18 -64 -33
-67 -33 -10 -3 -126 -57 -162 -75 -21 -11 -38 -16 -38 -12 0 4 -4 2 -8 -4 -4
-6 -47 -31 -97 -55 -49 -25 -97 -49 -105 -54 -8 -5 -20 -10 -26 -11 -6 -1 -30
-14 -54 -29 -24 -15 -84 -47 -133 -71 -50 -24 -93 -48 -96 -52 -5 -7 -37 -24
-51 -26 -3 -1 -23 -12 -45 -25 -22 -14 -43 -24 -47 -23 -5 1 -8 -3 -8 -9 0 -5
-4 -7 -10 -4 -5 3 -10 2 -10 -2 0 -5 -12 -14 -27 -21 -16 -6 -46 -23 -68 -37
-22 -14 -51 -31 -65 -38 -14 -6 -27 -14 -30 -17 -3 -3 -21 -14 -40 -24 -65
-33 -95 -51 -103 -64 -5 -7 -12 -10 -18 -7 -5 4 -9 1 -9 -4 0 -6 -5 -11 -10
-11 -6 0 -29 -12 -53 -27 -23 -15 -45 -26 -49 -25 -5 1 -8 -2 -8 -8 0 -5 -7
-10 -15 -10 -8 0 -15 -3 -15 -8 0 -4 -13 -13 -28 -19 -15 -7 -36 -20 -47 -28
-38 -30 -120 -79 -128 -77 -4 1 -10 -5 -13 -13 -4 -8 -11 -15 -17 -15 -6 0
-37 -18 -68 -40 -32 -22 -62 -40 -67 -40 -5 0 -13 -7 -16 -16 -3 -8 -10 -13
-15 -10 -5 4 -11 3 -13 -1 -4 -10 -154 -113 -163 -113 -4 0 -13 -6 -20 -12
-31 -28 -44 -38 -51 -38 -3 0 -24 -14 -45 -31 -21 -17 -39 -27 -39 -22 0 4 -5
0 -11 -9 -5 -10 -17 -18 -24 -18 -8 0 -15 -3 -15 -7 0 -5 -24 -24 -52 -43 -29
-19 -57 -38 -63 -43 -95 -73 -157 -117 -164 -117 -5 0 -11 -7 -15 -15 -3 -8
-12 -15 -21 -15 -8 0 -15 -4 -15 -10 0 -5 -12 -16 -27 -24 -16 -8 -43 -28 -61
-45 -18 -17 -36 -31 -38 -31 -8 0 -127 -93 -141 -110 -7 -8 -13 -11 -13 -7 0
4 -11 -3 -24 -17 -13 -15 -27 -26 -32 -26 -4 0 -17 -9 -29 -20 -34 -33 -224
-190 -230 -190 -3 0 -16 -11 -29 -25 -13 -14 -26 -25 -30 -25 -3 0 -19 -13
-34 -30 -16 -16 -31 -27 -34 -25 -3 3 -11 -1 -18 -10 -11 -13 -10 -19 5 -35
10 -11 22 -20 26 -20 8 0 36 -21 65 -48 8 -7 14 -11 14 -7 0 5 37 -20 85 -58
33 -25 136 -97 140 -97 3 0 13 -7 23 -16 26 -23 84 -62 110 -73 12 -6 22 -15
22 -21 0 -5 4 -10 9 -10 14 0 91 -52 91 -62 0 -4 5 -8 11 -8 9 0 233 -144 249
-160 8 -8 42 -29 78 -47 17 -9 32 -20 32 -25 0 -4 7 -8 15 -8 8 0 15 -4 15
-10 0 -5 7 -10 15 -10 8 0 15 -4 15 -10 0 -5 5 -10 10 -10 6 0 51 -27 101 -60
50 -33 93 -60 96 -60 2 0 26 -14 51 -32 73 -49 96 -64 112 -71 8 -4 27 -15 42
-25 61 -40 144 -86 151 -84 4 1 7 -2 7 -7 0 -5 12 -16 28 -24 62 -32 177 -102
180 -109 2 -5 11 -8 19 -8 9 0 24 -10 34 -22 11 -11 19 -17 19 -13 0 4 9 0 20
-10 11 -10 20 -15 20 -12 0 4 24 -8 53 -26 28 -18 69 -41 90 -52 20 -11 37
-23 37 -27 0 -5 9 -8 19 -8 11 0 23 -5 26 -10 4 -6 30 -22 58 -37 29 -14 54
-28 57 -32 3 -3 34 -21 70 -40 36 -18 76 -40 90 -48 63 -35 213 -115 300 -160
52 -26 97 -50 100 -53 3 -3 55 -30 115 -60 61 -30 112 -58 113 -62 2 -5 12 -8
23 -8 10 0 19 -4 19 -10 0 -5 9 -10 20 -10 11 0 20 -4 20 -10 0 -5 3 -9 8 -8
7 2 142 -62 152 -72 9 -10 113 -55 118 -52 3 2 8 0 11 -5 3 -5 24 -17 46 -27
22 -11 101 -48 175 -83 74 -35 146 -69 160 -75 14 -6 33 -14 43 -19 9 -5 26
-14 37 -19 11 -5 29 -14 40 -20 11 -5 27 -10 35 -10 8 0 15 -4 15 -10 0 -5 3
-9 8 -8 7 1 41 -13 160 -67 39 -19 72 -31 72 -29 0 3 16 -4 35 -16 27 -17 44
-21 70 -16 19 4 35 11 35 15 0 5 12 14 28 20 15 6 54 28 87 48 34 21 67 39 75
41 8 2 17 7 20 11 9 14 98 60 104 54 3 -4 6 -2 6 3 0 6 39 30 88 54 48 24 89
47 92 50 3 3 32 18 65 35 33 16 68 36 78 44 9 8 17 11 17 7 0 -4 16 2 35 14
19 12 35 19 35 17 0 -3 29 10 64 28 35 18 67 31 70 28 3 -4 6 -1 6 6 0 7 5 9
10 6 6 -3 10 -2 10 3 0 5 18 15 40 22 22 7 40 18 40 23 0 6 3 8 6 4 4 -3 26 5
51 18 24 14 48 25 53 25 5 0 33 11 62 25 118 54 241 104 248 100 4 -2 16 4 27
15 12 10 23 17 25 14 3 -2 36 9 74 25 38 16 88 35 112 42 23 7 42 18 42 26 0
7 -36 86 -80 175 -44 89 -80 167 -80 174 0 6 -7 17 -15 24 -8 6 -14 15 -13 18
1 4 -19 51 -45 105 -26 54 -47 102 -47 107 0 6 -5 10 -12 10 -6 0 -8 3 -5 7 4
3 1 13 -5 21 -7 8 -13 20 -13 26 -1 6 -13 38 -29 71 -99 210 -116 247 -116
251 0 2 -10 26 -21 52 -26 56 -52 114 -72 162 -9 19 -28 62 -43 95 -15 33 -27
66 -27 73 0 6 -4 12 -9 12 -4 0 -8 7 -8 15 0 15 -3 23 -33 81 -9 17 -14 34
-10 38 3 3 1 6 -5 6 -7 0 -12 7 -12 15 0 8 -4 23 -9 33 -14 25 -24 56 -23 65
1 4 -3 7 -9 7 -5 0 -8 4 -4 9 3 5 1 12 -4 15 -5 3 -11 16 -15 29 -3 13 -15 45
-28 73 -12 27 -23 52 -24 57 -1 4 -3 10 -4 15 -1 4 -2 10 -1 15 0 4 -3 7 -9 7
-6 0 -9 3 -8 8 1 4 -4 21 -11 37 -7 17 -30 77 -53 135 -22 58 -46 119 -53 135
-8 17 -23 57 -36 90 -12 33 -26 71 -32 85 -6 14 -11 28 -12 33 -2 4 -3 8 -5
10 -1 1 -3 9 -5 17 -9 38 -100 265 -107 268 -5 2 -6 8 -3 12 3 5 -2 26 -11 47
-9 21 -17 43 -18 48 -5 19 -17 50 -27 67 -5 10 -9 26 -9 36 0 10 -4 22 -8 27
-5 6 -15 30 -22 55 -8 25 -18 51 -24 59 -6 8 -10 16 -8 18 6 9 1 33 -10 45 -7
7 -14 22 -15 33 -2 16 -31 103 -126 375 -2 8 -24 76 -47 150 -23 74 -45 144
-51 155 -5 11 -10 29 -12 40 -1 11 -5 25 -8 30 -3 6 -11 30 -18 55 -8 25 -16
52 -19 60 -8 23 -13 44 -14 58 -1 6 -5 12 -10 12 -4 0 -7 3 -6 8 1 4 -4 31
-12 60 -15 55 -33 81 -45 62z"/>
<path d="M9166 12563 c-4 -4 -35 -9 -69 -10 -165 -7 -357 -19 -452 -28 -27 -3
-81 -7 -120 -9 -38 -3 -90 -8 -115 -11 -57 -8 -146 -16 -187 -18 -18 -1 -33
-4 -33 -7 0 -5 -74 -11 -162 -14 -21 0 -38 -4 -38 -8 0 -4 -12 -7 -27 -7 -31
-1 -88 -8 -88 -11 0 -1 -16 -3 -35 -4 -19 -2 -51 -6 -70 -9 -75 -15 -96 -18
-130 -22 -54 -6 -102 -13 -135 -19 -16 -4 -45 -9 -64 -12 -18 -3 -43 -8 -55
-10 -11 -3 -39 -7 -61 -10 -22 -3 -47 -7 -55 -11 -8 -3 -31 -7 -50 -9 -34 -3
-75 -11 -75 -14 0 -2 -31 -8 -70 -14 -16 -3 -40 -7 -52 -11 -40 -9 -67 -15
-98 -21 -16 -3 -50 -10 -75 -16 -25 -6 -52 -12 -60 -13 -42 -6 -96 -18 -105
-23 -5 -3 -16 -7 -25 -8 -8 -1 -26 -5 -40 -9 -14 -3 -36 -8 -50 -10 -14 -2
-40 -9 -58 -14 -18 -5 -35 -10 -37 -10 -3 -1 -6 -1 -7 -2 -4 -1 -28 -7 -53
-13 -11 -2 -56 -14 -100 -26 -44 -12 -87 -24 -95 -26 -27 -7 -95 -25 -110 -29
-87 -25 -120 -32 -120 -27 0 4 -4 2 -8 -4 -4 -5 -45 -20 -92 -33 -47 -13 -141
-41 -209 -63 -68 -22 -129 -41 -135 -43 -6 -1 -18 -5 -26 -8 -8 -4 -37 -14
-65 -22 -27 -9 -57 -19 -65 -22 -8 -4 -17 -7 -20 -8 -3 -1 -12 -4 -20 -8 -8
-3 -49 -17 -90 -31 -142 -48 -225 -78 -235 -85 -5 -4 -17 -7 -25 -6 -8 0 -18
-4 -22 -9 -3 -5 -12 -11 -20 -12 -15 -2 -123 -41 -153 -55 -17 -7 -71 -29 -85
-34 -3 -1 -23 -10 -45 -20 -22 -10 -45 -19 -51 -21 -6 -1 -48 -18 -93 -38 -45
-20 -88 -36 -95 -36 -8 0 -19 -6 -25 -14 -7 -8 -27 -17 -46 -20 -19 -4 -35
-11 -35 -16 0 -6 -5 -10 -11 -10 -11 0 -88 -34 -257 -112 -46 -21 -87 -38 -93
-38 -5 0 -9 -4 -9 -10 0 -5 -9 -10 -20 -10 -11 0 -20 -5 -20 -11 0 -6 -7 -9
-15 -5 -8 3 -15 1 -15 -4 0 -6 -7 -10 -15 -10 -8 0 -15 -5 -15 -12 0 -6 -3 -8
-7 -5 -3 4 -21 -3 -40 -14 -18 -11 -33 -18 -33 -14 0 3 -13 -3 -29 -14 -16
-12 -36 -21 -45 -21 -9 0 -16 -4 -16 -9 0 -9 -79 -46 -92 -43 -5 1 -8 -3 -8
-8 0 -6 -7 -10 -15 -10 -8 0 -15 -4 -15 -10 0 -5 -9 -10 -19 -10 -11 0 -21 -3
-23 -7 -1 -5 -39 -26 -83 -48 -44 -21 -104 -54 -132 -72 -29 -18 -53 -30 -53
-27 0 3 -13 -4 -29 -15 -16 -12 -33 -21 -39 -21 -5 0 -15 -7 -22 -15 -7 -8
-16 -13 -20 -10 -5 3 -11 1 -14 -4 -3 -5 -54 -37 -114 -71 -156 -90 -235 -137
-248 -149 -7 -5 -15 -7 -18 -4 -3 4 -6 1 -6 -5 0 -6 -17 -19 -38 -29 -20 -9
-40 -22 -44 -27 -4 -6 -8 -7 -8 -3 0 4 -10 -1 -22 -13 -12 -11 -26 -20 -31
-20 -4 0 -14 -6 -22 -12 -7 -7 -36 -26 -64 -43 -28 -16 -51 -33 -51 -37 0 -5
-5 -8 -10 -8 -9 0 -116 -66 -130 -80 -3 -3 -39 -27 -80 -54 -41 -27 -76 -53
-78 -58 -2 -4 -9 -8 -16 -8 -7 0 -25 -11 -40 -25 -15 -14 -29 -25 -32 -25 -6
0 -95 -61 -104 -71 -3 -3 -27 -21 -55 -39 -27 -19 -59 -42 -69 -52 -11 -10
-23 -18 -27 -18 -4 0 -14 -6 -21 -13 -12 -12 -107 -84 -174 -132 -32 -23 -83
-64 -102 -82 -7 -7 -16 -13 -20 -13 -4 0 -21 -13 -38 -28 -17 -15 -49 -40 -70
-57 -21 -16 -47 -38 -58 -47 -31 -26 -105 -86 -135 -109 -23 -18 -24 -22 -10
-32 8 -7 33 -27 55 -44 21 -18 80 -65 129 -104 50 -39 93 -76 97 -83 4 -6 8
-8 8 -4 0 8 15 -4 73 -55 18 -15 44 -35 59 -44 16 -10 28 -21 28 -25 0 -4 7
-8 15 -8 8 0 15 -4 15 -8 0 -4 13 -16 30 -25 16 -10 35 -23 42 -30 34 -31 98
-77 107 -77 6 0 11 -4 11 -8 0 -4 13 -16 30 -25 16 -10 35 -23 42 -30 7 -7 32
-24 56 -40 23 -15 42 -32 42 -38 0 -5 4 -8 8 -5 5 3 21 -6 37 -20 15 -13 32
-24 36 -24 4 0 14 -6 21 -13 25 -22 77 -57 87 -57 5 0 11 -4 13 -8 4 -12 185
-132 198 -132 5 0 10 -4 10 -9 0 -5 13 -14 30 -21 16 -7 30 -16 30 -21 0 -5 4
-9 9 -9 5 0 39 -19 75 -42 36 -24 91 -59 122 -78 31 -19 73 -45 93 -58 20 -12
44 -25 54 -28 9 -4 17 -10 17 -15 0 -5 4 -9 8 -9 9 0 351 -193 368 -208 6 -5
21 -13 35 -17 13 -4 26 -11 29 -14 3 -3 28 -17 55 -31 28 -14 52 -27 55 -30 3
-3 55 -30 115 -60 61 -30 112 -57 115 -60 8 -10 179 -90 190 -90 5 0 10 -4 10
-10 0 -5 7 -10 15 -10 8 0 35 -11 60 -25 25 -14 45 -22 45 -18 0 4 4 4 8 -2 9
-13 72 -48 72 -41 0 3 16 -3 35 -14 20 -11 42 -20 50 -20 8 0 15 -4 15 -10 0
-5 5 -10 11 -10 6 0 40 -13 75 -30 35 -16 66 -29 69 -30 3 0 20 -7 38 -17 17
-9 34 -18 37 -18 9 -3 44 -17 98 -41 29 -13 57 -24 62 -24 6 0 10 -5 10 -10 0
-6 3 -9 8 -8 11 2 64 -13 92 -27 14 -7 36 -17 50 -23 14 -5 41 -17 60 -25 19
-9 38 -13 42 -11 4 3 8 0 8 -7 0 -7 3 -9 7 -6 3 4 16 1 27 -6 18 -11 170 -70
186 -72 3 0 14 -6 25 -12 11 -6 24 -11 28 -11 8 0 49 -15 92 -32 36 -15 100
-34 108 -32 4 1 7 -2 7 -8 0 -5 3 -9 8 -8 6 2 229 -69 282 -89 8 -4 17 -7 20
-8 3 0 45 -14 95 -29 49 -15 96 -30 105 -31 8 -2 31 -9 50 -16 63 -22 77 -26
103 -32 6 -1 18 -6 25 -10 6 -5 12 -6 12 -3 0 3 18 -1 40 -9 22 -8 42 -14 45
-15 3 0 6 0 8 -1 1 0 9 -2 17 -4 8 -2 33 -9 55 -15 22 -6 51 -14 65 -17 14 -2
32 -7 40 -10 8 -3 24 -8 35 -10 35 -8 50 -11 55 -14 3 -1 10 -3 15 -4 6 -2 13
-4 18 -5 4 -1 12 -4 17 -5 6 -1 11 -3 13 -5 1 -1 16 -4 32 -6 17 -3 37 -7 45
-11 20 -8 15 -7 98 -23 40 -7 75 -17 78 -22 3 -4 20 -8 38 -8 18 0 36 -3 40
-7 3 -4 14 -8 24 -9 9 -2 29 -5 45 -8 15 -3 38 -8 51 -10 13 -2 34 -7 46 -11
26 -8 65 -15 98 -17 12 -1 22 -5 22 -8 0 -4 15 -8 33 -8 30 -2 72 -9 72 -12 0
-3 71 -16 135 -25 14 -2 26 -4 28 -5 4 -4 77 -17 147 -26 11 -1 20 -3 20 -4 0
-2 14 -4 30 -5 17 -2 30 -4 30 -5 0 -1 14 -3 30 -5 17 -2 44 -6 60 -10 17 -4
45 -7 63 -7 17 -1 32 -4 32 -8 0 -3 10 -6 23 -7 12 -1 40 -3 62 -6 22 -3 63
-8 90 -12 57 -6 121 -16 150 -21 11 -3 37 -5 57 -5 25 -1 35 -5 31 -13 -4 -7
-1 -6 9 1 8 7 17 11 20 8 6 -6 98 -18 150 -19 21 -1 38 -3 38 -6 0 -3 19 -6
43 -7 49 -2 136 -9 222 -18 33 -3 92 -8 130 -10 39 -2 70 -4 70 -5 0 -2 126
-9 195 -10 35 -1 73 -6 84 -12 13 -7 16 -7 12 1 -4 6 -3 11 3 11 5 0 13 -5 16
-10 4 -7 11 -7 18 -2 7 5 21 8 32 5 67 -14 1060 -17 1095 -3 3 1 21 1 40 1 42
-2 44 -2 95 4 22 2 87 6 145 10 163 9 324 21 430 31 25 3 63 6 85 9 22 2 63 6
90 10 28 3 68 7 90 9 82 8 161 17 181 21 11 3 43 7 70 10 27 3 63 9 79 12 17
3 45 6 63 7 17 0 32 3 32 6 0 3 15 5 33 5 17 -1 37 1 42 4 6 3 24 6 40 7 17 1
31 3 33 4 1 1 5 3 10 4 4 1 12 5 19 9 6 4 13 2 15 -4 3 -9 9 -9 24 -1 11 6 40
13 65 16 24 2 44 5 44 6 0 2 24 6 75 14 19 2 46 7 60 10 61 12 102 20 175 32
17 3 41 6 55 7 14 1 28 6 31 10 3 4 26 10 50 13 54 7 84 12 84 14 0 1 13 4 29
6 16 3 54 12 85 20 30 8 63 14 73 14 10 0 18 5 18 11 0 5 4 8 10 4 5 -3 44 3
87 14 43 11 89 22 103 25 14 2 53 12 87 21 35 9 71 18 80 20 10 2 43 11 73 20
30 9 64 18 75 19 11 2 21 5 23 6 2 3 2 3 52 14 19 5 39 11 45 14 5 3 16 7 25
8 16 2 124 32 150 42 20 7 31 10 57 16 12 2 31 10 43 16 12 6 28 9 36 6 8 -3
14 -2 14 2 0 5 24 14 53 21 28 8 57 16 62 20 6 3 12 6 15 7 29 5 67 19 78 27
6 5 12 7 12 3 0 -3 36 8 81 24 44 17 85 28 90 24 5 -3 9 0 9 6 0 6 4 9 9 5 5
-3 12 -1 16 5 4 6 11 8 16 5 5 -4 9 -1 9 4 0 6 6 11 14 11 8 0 25 4 38 9 13 5
28 10 33 11 10 3 129 46 155 57 8 3 20 7 25 9 6 1 46 17 90 34 44 17 85 33 90
34 6 2 22 8 37 14 15 6 89 37 165 68 76 31 149 61 163 67 14 6 28 11 33 12 4
2 10 4 15 5 4 1 10 2 15 1 4 0 7 3 7 9 0 5 5 10 11 10 6 0 40 13 76 30 35 16
66 30 68 30 2 0 39 17 82 37 43 21 80 38 83 38 3 1 37 16 75 35 39 19 73 33
78 32 4 -1 7 2 7 8 0 6 3 9 8 8 4 -1 36 12 72 30 36 17 67 30 70 29 3 -1 19 7
35 19 17 12 66 38 110 59 44 21 82 41 85 44 3 3 64 35 135 71 72 36 132 68
135 71 3 3 39 23 80 45 41 21 77 41 80 44 10 10 65 41 83 47 9 3 17 10 17 15
0 5 4 7 9 3 5 -3 16 1 23 9 8 7 45 31 84 51 38 21 71 42 72 47 2 4 8 6 13 2 5
-3 9 0 9 5 0 6 6 11 14 11 8 0 16 3 18 8 4 9 57 41 81 49 9 3 17 9 17 14 0 5
5 9 11 9 6 0 25 11 43 25 18 14 35 25 39 25 6 0 196 123 214 139 7 6 19 11 27
11 8 0 16 4 18 8 2 5 32 28 68 52 36 24 71 49 78 56 6 7 21 16 32 19 11 3 20
11 20 16 0 5 6 9 14 9 7 0 18 6 24 13 8 10 6 16 -10 26 -16 10 -19 10 -13 -1
6 -10 5 -11 -6 0 -7 6 -25 12 -39 12 -14 0 -31 5 -38 12 -7 7 -12 9 -12 6 0
-5 -44 3 -90 17 -25 8 -134 35 -159 41 -14 3 -28 7 -33 10 -5 3 -21 8 -36 11
-34 6 -43 9 -62 15 -8 3 -53 16 -100 28 -47 12 -93 26 -103 31 -10 5 -22 7
-27 4 -6 -4 -10 -2 -10 2 0 5 -8 9 -17 10 -37 3 -143 36 -143 45 0 5 -5 6 -10
3 -6 -4 -19 -3 -28 1 -9 4 -24 8 -32 9 -8 2 -43 12 -77 23 -34 11 -64 17 -67
14 -3 -3 -6 -1 -6 5 0 5 -6 10 -12 11 -25 1 -247 69 -313 95 -16 6 -32 12 -35
13 -16 2 -96 27 -119 36 -14 6 -35 13 -46 15 -11 1 -29 7 -40 12 -22 10 -96
35 -107 36 -3 0 -10 3 -14 8 -4 4 -16 7 -26 7 -10 0 -26 4 -36 9 -9 6 -46 19
-82 31 -36 11 -72 23 -80 27 -25 10 -144 53 -155 56 -43 11 -251 92 -253 99
-2 4 -8 6 -13 3 -4 -3 -32 4 -61 16 -82 33 -90 36 -138 54 -25 9 -56 22 -70
28 -29 12 -50 18 -67 19 -7 1 -13 4 -13 8 0 3 -30 17 -67 30 -38 13 -83 32
-100 42 -18 10 -33 16 -33 13 0 -2 -17 3 -37 12 -21 8 -49 20 -63 26 -14 6
-27 11 -30 12 -3 1 -23 9 -45 19 -22 10 -44 19 -50 20 -5 1 -28 10 -50 20 -22
10 -44 19 -50 20 -5 1 -19 7 -31 14 -12 6 -44 20 -71 31 -47 18 -96 40 -183
79 -19 9 -37 17 -40 17 -3 1 -22 9 -44 18 -21 9 -42 17 -47 17 -5 0 -9 4 -9
10 0 5 -3 9 -7 8 -5 -1 -21 5 -38 12 -16 7 -32 14 -35 15 -13 4 -61 25 -115
51 -33 15 -62 28 -65 29 -3 0 -34 16 -70 34 -36 18 -67 33 -70 33 -3 0 -43 18
-90 41 -47 22 -87 41 -90 42 -3 0 -63 29 -135 64 -71 35 -134 63 -139 62 -5
-1 -12 2 -15 6 -3 5 -116 64 -251 132 -135 68 -260 132 -277 143 -18 11 -33
16 -33 11 0 -4 -4 -3 -8 2 -8 11 -7 10 -137 80 -49 27 -117 63 -150 81 -33 19
-70 38 -81 43 -19 8 -186 102 -319 177 -45 26 -109 61 -142 78 -13 6 -23 15
-23 19 0 5 -4 5 -10 2 -5 -3 -10 -1 -10 4 0 6 -4 11 -9 11 -5 0 -66 34 -136
75 -69 41 -131 75 -136 75 -5 0 -9 3 -9 8 0 4 -17 16 -37 27 -21 11 -61 34
-90 52 -29 18 -56 33 -62 33 -5 0 -11 3 -13 8 -4 9 -57 41 -80 49 -10 3 -18 9
-18 14 0 5 -7 9 -15 9 -8 0 -15 4 -15 8 0 5 -15 16 -32 25 -18 9 -42 23 -52
29 -69 45 -126 78 -134 78 -6 0 -13 7 -16 16 -4 9 -9 14 -12 11 -4 -3 -15 3
-27 14 -11 10 -27 19 -34 19 -7 0 -13 4 -13 9 0 5 -8 12 -17 15 -37 13 -73 37
-73 48 0 6 -3 9 -6 5 -6 -5 -152 89 -165 106 -3 5 -10 8 -15 8 -5 -1 -17 6
-27 14 -9 8 -22 15 -27 15 -6 0 -10 5 -10 10 0 6 -4 10 -9 10 -12 0 -205 131
-209 142 -2 4 -8 6 -13 2 -5 -3 -9 0 -9 5 0 6 -7 11 -15 11 -8 0 -15 5 -15 10
0 6 -5 10 -12 10 -6 0 -20 7 -30 17 -10 9 -27 21 -38 27 -26 15 -264 178 -270
186 -18 22 -139 93 -160 94 -14 1 -28 4 -31 9 -3 4 -9 4 -13 0z"/>
<path d="M30837 12564 c-3 -3 -24 -7 -47 -8 -23 -2 -45 -7 -48 -13 -4 -5 -22
-18 -39 -28 -18 -11 -33 -23 -33 -27 0 -4 -7 -8 -15 -8 -8 0 -15 -4 -15 -10 0
-5 -18 -19 -40 -30 -22 -11 -40 -24 -40 -28 0 -4 -13 -13 -28 -20 -16 -6 -37
-20 -48 -30 -11 -9 -28 -21 -37 -27 -9 -5 -84 -56 -167 -112 -83 -57 -154
-103 -159 -103 -5 0 -11 -3 -13 -7 -5 -13 -78 -65 -78 -56 0 4 -4 3 -8 -3 -8
-12 -142 -101 -184 -122 -16 -8 -28 -19 -28 -24 0 -5 -4 -6 -10 -3 -5 3 -10 2
-10 -2 0 -5 -16 -17 -35 -27 -19 -11 -35 -24 -35 -29 0 -6 -3 -8 -6 -4 -3 3
-32 -12 -64 -34 -31 -21 -62 -39 -68 -39 -6 0 -12 -4 -14 -8 -3 -8 -198 -132
-258 -164 -17 -9 -40 -24 -51 -34 -10 -9 -19 -13 -19 -8 0 5 -5 2 -10 -6 -5
-8 -13 -15 -17 -15 -4 0 -21 -9 -38 -19 -55 -35 -70 -43 -79 -44 -5 0 -12 -4
-15 -9 -6 -10 -88 -59 -168 -102 -10 -6 -60 -35 -110 -65 -51 -31 -97 -56
-103 -56 -5 0 -10 -4 -10 -10 0 -5 -4 -10 -9 -10 -7 0 -253 -135 -291 -160 -8
-5 -31 -18 -50 -28 -91 -47 -216 -116 -220 -121 -3 -3 -11 -7 -19 -9 -7 -1
-48 -23 -91 -47 -42 -25 -81 -45 -87 -45 -5 0 -19 -9 -31 -20 -12 -12 -22 -18
-22 -16 0 3 -64 -28 -143 -68 -271 -140 -332 -170 -339 -168 -5 1 -8 -3 -8 -8
0 -6 -5 -10 -10 -10 -6 0 -85 -37 -178 -82 -92 -45 -169 -83 -172 -83 -3 0
-15 -6 -27 -13 -13 -7 -23 -9 -23 -5 0 4 -4 3 -8 -3 -5 -8 -106 -61 -132 -69
-14 -4 -67 -28 -80 -36 -8 -5 -22 -12 -30 -15 -8 -3 -32 -15 -52 -25 -21 -11
-41 -20 -45 -21 -11 -1 -57 -21 -63 -28 -3 -3 -10 -6 -16 -7 -7 -1 -38 -14
-70 -29 -33 -14 -75 -33 -94 -41 -19 -8 -48 -21 -65 -29 -32 -14 -107 -46
-115 -49 -3 0 -25 -11 -50 -22 -25 -12 -85 -38 -135 -58 -49 -20 -109 -45
-132 -56 -24 -10 -48 -19 -55 -19 -7 0 -22 -7 -32 -15 -10 -8 -23 -12 -27 -9
-5 3 -9 1 -9 -4 0 -6 -16 -13 -35 -16 -19 -4 -35 -11 -35 -16 0 -6 -3 -9 -7
-8 -9 2 -48 -9 -78 -22 -71 -31 -146 -62 -160 -66 -5 -1 -23 -8 -40 -15 -16
-7 -33 -13 -37 -14 -5 -2 -10 -4 -13 -5 -3 -1 -8 -3 -12 -4 -5 -1 -25 -10 -46
-19 -22 -9 -56 -22 -78 -28 -21 -7 -39 -16 -39 -20 0 -5 -6 -6 -14 -3 -8 3
-17 0 -21 -5 -3 -6 -11 -9 -16 -6 -5 4 -9 1 -9 -5 0 -6 -5 -8 -10 -5 -6 4 -16
3 -23 -2 -7 -5 -66 -29 -132 -52 -66 -24 -155 -56 -197 -72 -43 -16 -84 -29
-93 -29 -8 0 -15 -4 -15 -8 0 -4 -11 -9 -23 -10 -13 -1 -37 -8 -53 -17 -16 -8
-36 -15 -45 -15 -9 0 -19 -3 -23 -7 -6 -7 -29 -13 -53 -15 -7 -1 -13 -6 -13
-11 0 -6 -3 -8 -6 -5 -3 4 -21 0 -40 -8 -19 -8 -34 -12 -34 -9 0 3 -10 0 -22
-7 -22 -11 -28 -14 -60 -21 -7 -1 -17 -5 -23 -9 -5 -3 -30 -12 -55 -19 -60
-16 -46 -12 -210 -65 -80 -25 -149 -47 -155 -48 -5 -2 -17 -6 -25 -9 -26 -11
-105 -31 -112 -29 -5 1 -8 -3 -8 -9 0 -5 -4 -7 -10 -4 -5 3 -16 3 -22 -2 -7
-4 -19 -9 -25 -10 -31 -7 -48 -12 -48 -13 0 -1 -7 -3 -15 -5 -8 -2 -26 -7 -40
-10 -14 -4 -31 -7 -37 -7 -7 -1 -13 -4 -13 -8 0 -4 -6 -7 -12 -8 -22 -1 -66
-12 -92 -22 -13 -5 -27 -6 -30 -3 -3 4 -6 2 -6 -3 0 -5 -8 -10 -17 -11 -10 0
-67 -15 -128 -32 -60 -18 -121 -34 -135 -37 -14 -2 -36 -9 -50 -14 -14 -5 -36
-11 -50 -14 -14 -2 -61 -14 -105 -26 -44 -12 -89 -23 -100 -26 -25 -5 -65 -14
-85 -19 -8 -2 -17 -4 -19 -4 -2 -1 27 -22 65 -47 38 -25 71 -50 72 -55 2 -5 7
-9 12 -9 8 0 222 -138 247 -160 7 -5 15 -10 18 -10 3 0 50 -29 105 -65 55 -36
104 -65 110 -65 5 0 10 -4 10 -9 0 -5 10 -13 21 -16 12 -4 52 -27 90 -51 37
-24 72 -44 78 -44 6 0 11 -5 11 -11 0 -5 4 -8 9 -5 5 4 11 2 13 -2 1 -5 28
-22 58 -39 130 -72 155 -87 162 -97 4 -6 8 -8 8 -4 0 4 21 -6 47 -22 26 -17
53 -30 60 -30 7 0 13 -4 13 -10 0 -5 9 -10 20 -10 11 0 20 -4 20 -10 0 -5 6
-10 13 -10 7 0 19 -6 25 -13 7 -6 16 -12 20 -13 11 -1 47 -17 52 -23 10 -12
50 -31 64 -31 8 0 16 -4 18 -8 2 -5 62 -37 133 -73 72 -35 133 -68 137 -74 4
-5 8 -6 8 -2 0 4 20 -4 43 -18 24 -14 51 -25 60 -25 8 0 17 -4 19 -8 3 -9 113
-62 128 -62 6 0 10 -5 10 -11 0 -5 4 -8 9 -4 5 3 12 1 16 -5 3 -5 15 -10 26
-10 10 0 19 -4 19 -10 0 -5 6 -10 13 -10 7 0 35 -11 63 -24 27 -13 65 -30 84
-38 19 -9 51 -23 70 -31 19 -9 38 -16 43 -16 4 0 20 -7 35 -14 45 -24 125 -62
131 -62 15 -2 60 -18 101 -37 25 -12 54 -25 65 -29 11 -4 43 -16 72 -28 28
-12 59 -21 67 -21 9 0 16 -4 16 -10 0 -5 8 -10 18 -10 10 0 22 -3 26 -7 3 -4
12 -8 19 -9 10 -1 85 -29 192 -69 11 -5 29 -10 39 -12 11 -2 25 -8 32 -14 7
-6 18 -8 24 -4 5 3 10 3 10 -2 0 -4 28 -17 63 -27 34 -11 67 -22 72 -25 6 -3
15 -6 20 -7 20 -4 140 -45 158 -55 10 -5 22 -7 27 -4 6 4 10 2 10 -3 0 -5 6
-9 13 -9 7 0 38 -8 68 -18 56 -19 84 -27 84 -25 0 0 26 -8 58 -19 31 -11 57
-17 57 -14 0 3 6 1 13 -5 6 -6 29 -13 50 -17 20 -4 40 -11 42 -16 3 -4 12 -6
20 -2 8 3 15 0 15 -7 0 -6 4 -9 9 -5 5 3 29 -1 53 -9 24 -7 57 -17 73 -21 17
-5 35 -9 40 -11 9 -3 36 -9 75 -19 8 -2 17 -4 20 -5 3 -1 9 -2 14 -1 4 1 14
-3 21 -9 7 -6 17 -10 21 -9 5 2 29 -3 54 -10 25 -7 52 -14 60 -16 8 -2 35 -8
60 -15 25 -7 54 -13 65 -14 11 -1 26 -5 33 -9 6 -5 17 -5 22 -2 6 3 10 2 10
-2 0 -5 8 -9 18 -10 16 -2 69 -13 232 -49 36 -8 76 -16 90 -19 14 -2 46 -8 73
-14 26 -6 64 -14 83 -17 20 -3 46 -8 58 -10 11 -3 35 -7 51 -10 36 -6 63 -11
91 -18 48 -10 101 -19 127 -20 15 0 27 -3 27 -6 0 -3 10 -6 23 -6 12 -1 42 -5
67 -9 25 -4 59 -8 75 -10 17 -1 30 -4 30 -5 0 -3 91 -12 130 -14 17 0 33 -5
36 -9 3 -4 30 -9 60 -11 30 -3 54 -5 54 -6 0 -1 14 -4 30 -5 49 -5 147 -15
200 -22 28 -3 66 -7 85 -8 19 -1 35 -4 35 -5 0 -1 23 -4 50 -5 28 -2 50 -4 50
-5 0 -1 23 -3 50 -5 28 -1 77 -5 110 -9 33 -4 89 -9 125 -11 36 -2 108 -7 160
-10 52 -3 125 -7 161 -9 37 -2 72 -6 78 -10 6 -4 11 -2 11 4 0 8 7 9 18 5 45
-18 1080 -21 1098 -2 3 3 17 2 31 -4 13 -5 22 -6 20 -1 -3 4 32 8 76 9 45 1
123 4 172 8 177 12 211 15 275 19 36 3 92 8 125 11 33 4 78 8 100 9 22 1 46 5
54 10 10 7 12 6 6 -4 -6 -9 -4 -11 5 -5 15 9 40 13 125 19 33 3 60 5 60 6 0 3
43 10 90 14 58 6 99 11 175 21 30 5 63 8 73 7 9 0 17 3 17 7 0 5 11 7 25 6 14
-2 25 1 25 6 0 5 10 5 24 -1 14 -5 27 -5 32 0 5 5 31 11 57 12 26 2 47 5 47 8
0 3 13 6 28 7 15 1 41 5 57 8 17 3 45 8 63 10 18 2 43 7 55 11 12 4 36 8 52 9
17 1 30 3 30 5 0 1 11 3 25 5 14 1 39 6 55 9 17 4 44 9 60 12 17 2 68 13 115
23 47 10 88 17 93 14 4 -2 7 2 7 9 0 9 3 9 10 -2 6 -10 10 -11 10 -2 0 6 8 12
18 12 17 0 145 28 172 37 8 3 26 7 40 9 14 1 57 11 97 22 40 11 74 17 77 14 4
-3 6 0 6 7 0 7 4 10 8 7 4 -2 38 4 75 13 37 10 67 16 67 14 0 -3 7 0 15 7 8 7
15 10 15 6 0 -3 12 -1 28 5 15 6 36 12 47 14 11 2 35 8 53 13 18 6 35 11 37
11 9 1 20 5 75 20 25 7 50 14 55 15 6 1 37 11 70 21 33 10 65 19 70 21 8 1 87
24 105 29 3 1 12 4 20 8 8 3 47 15 85 27 39 11 77 24 85 27 8 4 20 8 25 8 6 1
17 5 25 8 8 3 58 20 110 37 52 18 102 34 110 37 8 3 23 8 33 10 10 1 31 10 48
18 16 9 29 13 29 11 0 -3 12 1 27 9 15 8 30 12 35 9 4 -3 8 0 8 7 0 7 3 10 6
7 3 -4 37 7 76 23 39 16 75 29 80 29 5 0 34 11 64 25 30 14 59 25 64 25 6 0
18 4 28 10 26 15 198 80 211 80 6 0 11 5 11 10 0 6 6 10 14 10 8 0 43 13 79
29 36 16 68 27 71 24 3 -4 6 -1 6 5 0 7 5 12 11 12 15 0 164 65 359 158 41 20
77 36 80 37 3 0 55 25 115 55 61 30 113 55 117 55 3 0 9 3 13 7 4 4 32 19 63
34 32 15 63 32 71 38 7 5 20 11 28 12 8 2 32 14 54 28 21 15 39 24 39 21 0 -3
17 5 38 18 20 12 48 28 62 35 14 6 33 16 43 22 9 5 25 14 35 19 46 26 299 169
340 194 26 15 55 31 65 34 9 3 17 9 17 14 0 5 4 9 9 9 9 0 246 143 331 200 62
42 125 81 159 101 23 12 41 27 41 31 0 5 5 6 10 3 6 -3 10 -2 10 4 0 5 11 16
25 23 23 12 146 96 280 189 109 76 210 152 217 163 5 7 8 7 8 1 0 -7 3 -7 8 0
4 6 34 30 67 55 33 25 62 48 63 53 2 4 9 7 16 7 6 0 19 8 28 18 20 20 32 30
78 62 19 14 45 35 57 48 12 12 27 22 33 22 5 0 10 3 10 8 0 4 16 18 35 31 19
13 45 33 59 45 13 11 37 31 52 43 16 12 43 35 61 51 18 17 37 32 44 34 7 2
-28 36 -77 76 -49 39 -96 78 -104 85 -8 7 -67 54 -130 103 -63 49 -121 95
-128 101 -7 7 -17 13 -21 13 -4 0 -16 8 -27 18 -10 10 -37 31 -59 47 -22 17
-42 32 -45 35 -3 3 -27 21 -55 39 -27 19 -52 37 -55 40 -3 4 -27 22 -55 41
-27 19 -51 38 -53 42 -2 4 -9 8 -15 8 -7 1 -28 14 -47 30 -19 17 -40 30 -47
30 -7 0 -13 4 -13 8 0 5 -16 17 -35 28 -19 10 -35 22 -35 26 0 5 -6 8 -14 8
-8 0 -16 3 -18 8 -1 4 -37 29 -78 57 -41 27 -76 53 -78 57 -2 4 -8 8 -13 8 -6
0 -22 8 -37 19 -55 38 -200 130 -312 197 -63 38 -117 71 -120 74 -5 5 -19 13
-99 58 -25 14 -63 36 -83 49 -21 12 -42 23 -48 23 -5 0 -10 5 -10 10 0 6 -4
10 -9 10 -6 0 -36 15 -68 34 -69 40 -147 81 -343 184 -80 42 -148 80 -151 85
-3 5 -10 9 -15 9 -25 2 -44 11 -44 21 0 6 -3 7 -7 4 -3 -4 -17 0 -30 8 -13 9
-23 12 -23 9 0 -4 -8 0 -17 9 -10 8 -20 16 -23 16 -19 3 -70 27 -70 33 0 4 -9
8 -20 8 -11 0 -20 5 -20 10 0 6 -5 10 -12 10 -6 0 -34 11 -62 24 -57 27 -166
78 -268 125 -37 17 -69 31 -72 31 -3 0 -29 11 -58 24 -29 13 -82 36 -118 51
-36 14 -78 32 -95 40 -16 7 -82 33 -145 58 -63 24 -124 48 -135 52 -11 5 -22
9 -25 10 -6 2 -51 20 -95 38 -16 6 -32 12 -35 12 -4 0 -90 30 -150 53 -8 3
-18 4 -22 4 -5 -1 -8 3 -8 9 0 5 -4 7 -10 4 -5 -3 -10 -2 -10 4 0 5 -8 8 -17
6 -10 -1 -22 1 -28 5 -5 4 -55 22 -110 40 -55 18 -113 37 -130 44 -16 6 -33
10 -37 8 -5 -1 -8 3 -8 8 0 5 -3 9 -7 8 -15 -3 -83 14 -83 21 0 4 -9 8 -20 9
-43 4 -50 6 -50 13 0 5 -6 6 -14 3 -8 -3 -17 0 -21 5 -3 6 -10 9 -15 6 -5 -3
-11 -1 -15 4 -3 6 -12 8 -20 4 -8 -3 -15 0 -15 7 0 6 -6 10 -12 7 -7 -2 -27 1
-45 8 -17 8 -34 11 -37 7 -3 -3 -6 -1 -6 4 0 5 -8 10 -19 11 -10 1 -49 11 -87
22 -38 11 -82 23 -98 25 -16 3 -32 9 -35 13 -3 4 -15 9 -26 10 -21 2 -60 10
-60 13 0 1 -7 3 -15 5 -45 10 -69 15 -105 25 -22 6 -47 12 -55 14 -8 2 -42 11
-75 19 -33 9 -71 18 -85 21 -14 3 -54 13 -90 21 -58 14 -105 24 -135 29 -5 1
-14 4 -20 7 -5 3 -26 6 -45 8 -19 2 -41 8 -48 13 -7 6 -15 8 -18 5 -3 -3 -19
-1 -36 4 -17 5 -50 11 -72 14 -23 4 -64 12 -93 20 -28 7 -54 11 -57 8 -2 -3
-11 -1 -18 3 -7 5 -23 9 -34 10 -12 0 -49 6 -83 12 -144 28 -178 34 -211 37
-19 2 -35 4 -35 5 0 2 -13 4 -30 5 -16 2 -30 4 -30 5 0 1 -9 3 -20 4 -11 2
-38 6 -60 10 -52 8 -110 16 -164 21 -24 2 -51 7 -60 9 -14 5 -55 9 -186 22
-16 1 -30 3 -30 4 0 2 -15 4 -115 14 -36 3 -86 8 -112 11 -49 5 -130 12 -233
20 -33 3 -87 7 -120 10 -52 5 -178 12 -325 19 -25 1 -50 5 -56 9 -6 3 -14 4
-17 1z"/>
<path d="M19968 7872 c-16 -10 -28 -23 -28 -31 0 -8 -3 -12 -6 -9 -3 3 -18 -6
-33 -20 -15 -15 -47 -43 -72 -64 -24 -20 -54 -44 -65 -55 -12 -10 -39 -31 -60
-48 -49 -39 -144 -116 -169 -137 -11 -9 -56 -45 -100 -79 -44 -34 -81 -66 -83
-71 -2 -4 -10 -8 -18 -8 -8 0 -14 -3 -14 -7 0 -5 -16 -19 -35 -32 -19 -13 -44
-32 -56 -42 -12 -10 -49 -38 -82 -61 -33 -24 -67 -50 -77 -58 -17 -16 -32 -26
-87 -61 -18 -12 -33 -25 -33 -30 0 -5 -11 -11 -25 -15 -14 -4 -23 -9 -20 -12
3 -3 -14 -18 -37 -32 l-43 -27 0 -3486 0 -3487 1175 0 1175 0 -1 3486 c-1
2934 -4 3488 -15 3495 -8 4 -23 15 -34 23 -59 44 -126 93 -145 106 -35 24
-113 83 -134 103 -11 9 -23 17 -28 17 -4 0 -16 8 -27 18 -10 9 -31 26 -45 37
-15 11 -37 29 -49 41 -13 12 -28 23 -34 25 -6 2 -28 18 -49 35 -22 17 -88 71
-148 119 -60 48 -118 95 -128 104 -11 9 -28 23 -38 31 -10 8 -33 27 -52 42
-19 15 -46 37 -60 50 -14 13 -47 41 -73 63 -26 22 -62 52 -79 67 -36 32 -32
31 -68 10z"/>
</g>
</svg>
